<?xml version="1.0" standalone="no"?>
<!DOCTYPE svg PUBLIC "-//W3C//DTD SVG 20010904//EN"
 "http://www.w3.org/TR/2001/REC-SVG-20010904/DTD/svg10.dtd">
<svg version="1.0" xmlns="http://www.w3.org/2000/svg"
 width="550.000000pt" height="550.000000pt" viewBox="0 0 550.000000 550.000000"
 preserveAspectRatio="xMidYMid meet">
<metadata>
Created by potrace 1.14, written by Peter Selinger 2001-2017
</metadata>
<g transform="translate(0.000000,550.000000) scale(0.100000,-0.100000)"
fill="#000000" stroke="none">
<path d="M2670 5148 c-59 -10 -80 -19 -311 -128 -254 -121 -372 -176 -439
-207 -30 -14 -138 -66 -239 -114 -101 -49 -185 -89 -187 -89 -1 0 -71 -33
-156 -73 -84 -40 -256 -122 -383 -183 -264 -125 -313 -162 -356 -269 l-24 -60
-1 -1214 c-1 -724 2 -1229 8 -1250 34 -130 86 -181 293 -290 88 -46 187 -98
220 -116 33 -18 123 -65 200 -105 77 -40 172 -90 210 -110 39 -20 115 -61 170
-90 55 -29 136 -72 180 -95 74 -39 122 -65 395 -208 52 -27 146 -76 207 -109
137 -72 214 -95 308 -92 88 3 142 21 280 94 61 32 172 90 248 129 75 39 161
84 191 100 29 16 107 57 172 92 66 34 146 76 179 94 33 18 119 63 190 100 72
37 162 85 200 105 39 21 113 60 165 87 416 218 440 234 488 315 51 89 49 47
50 1323 0 1094 -3 1243 -25 1295 -3 8 -7 17 -7 20 -5 19 -60 91 -86 114 -41
34 -62 45 -340 176 -124 59 -265 126 -315 150 -49 23 -137 65 -195 92 -58 28
-141 67 -185 88 -44 21 -213 100 -375 177 -433 206 -464 220 -514 237 -56 19
-155 26 -216 14z"/>
</g>
</svg>
