<?xml version="1.0" standalone="no"?>
<!DOCTYPE svg PUBLIC "-//W3C//DTD SVG 20010904//EN"
 "http://www.w3.org/TR/2001/REC-SVG-20010904/DTD/svg10.dtd">
<svg version="1.0" xmlns="http://www.w3.org/2000/svg"
 width="600.000000pt" height="600.000000pt" viewBox="0 0 600.000000 600.000000"
 preserveAspectRatio="xMidYMid meet">
<metadata>
Created by potrace 1.14, written by Peter Selinger 2001-2017
</metadata>
<g transform="translate(0.000000,600.000000) scale(0.100000,-0.100000)"
fill="#000000" stroke="none">
<path d="M3089 5964 c12 -19 21 -41 21 -49 0 -8 5 -17 12 -21 8 -5 9 0 4 17
-4 13 -8 30 -8 37 -1 6 -5 12 -9 12 -4 0 -11 9 -14 20 -3 11 -11 20 -17 20 -5
0 -1 -16 11 -36z"/>
<path d="M4085 5740 c-33 -10 -53 -19 -45 -19 8 -1 44 8 80 18 36 11 56 19 45
19 -11 0 -47 -8 -80 -18z"/>
<path d="M4073 5708 c-18 -6 -33 -15 -33 -19 0 -13 11 -10 50 11 38 21 33 24
-17 8z"/>
<path d="M4250 5711 c0 -17 -141 -88 -290 -146 -80 -32 -172 -71 -205 -87 -71
-36 -225 -127 -225 -134 0 -3 9 0 21 6 11 6 25 10 31 8 6 -2 -47 -41 -118 -87
-71 -46 -147 -98 -169 -115 -22 -18 -48 -35 -57 -39 -24 -9 -22 -24 5 -39 29
-16 58 -18 82 -5 l20 10 -20 -23 -20 -23 35 17 35 17 -40 -36 c-38 -33 -73
-42 -68 -17 3 14 -13 16 -22 3 -3 -6 3 -14 12 -20 14 -9 15 -12 5 -19 -8 -5
-12 -20 -10 -33 2 -18 12 -25 42 -31 25 -5 43 -5 50 2 5 5 15 10 21 10 5 0 3
-5 -5 -10 -8 -5 -15 -21 -15 -35 0 -23 -7 -29 -54 -45 -59 -20 -74 -35 -64
-65 15 -49 32 -44 112 33 75 73 123 107 134 95 3 -3 -2 -17 -11 -31 -16 -24
-15 -24 27 6 43 31 111 45 111 22 0 -5 -5 -10 -11 -10 -5 0 -8 -4 -5 -8 3 -5
-26 -39 -64 -76 -65 -63 -82 -86 -62 -86 5 0 21 14 38 31 43 45 122 101 133
94 6 -3 34 13 63 35 29 22 62 40 73 40 17 0 17 -2 5 -10 -13 -8 -12 -10 4 -10
35 0 -31 -58 -110 -96 -74 -37 -164 -116 -145 -128 6 -4 14 0 17 9 6 14 9 13
30 -6 14 -13 31 -20 43 -16 11 3 22 0 24 -6 4 -12 67 9 67 22 0 4 14 15 31 25
17 10 28 24 25 31 -6 17 24 44 44 39 8 -1 30 -7 48 -13 27 -8 34 -7 42 9 15
29 48 44 65 30 7 -6 32 -8 56 -5 41 4 42 4 17 -7 -35 -15 -35 -22 -1 -37 29
-13 22 -27 -17 -34 -14 -2 12 -5 57 -6 90 -1 113 -7 113 -27 0 -18 -32 -34
-67 -34 -45 0 -108 -20 -93 -30 8 -5 10 -15 6 -26 -4 -10 6 -4 24 14 30 32 63
41 75 22 3 -5 14 -10 23 -10 15 0 15 2 2 10 -12 8 -11 10 6 10 20 0 57 30 38
30 -14 0 20 20 34 20 7 0 10 -5 6 -11 -5 -9 1 -10 22 -5 77 19 80 19 81 -6 1
-12 7 -24 13 -26 24 -8 7 -33 -37 -52 -116 -52 -227 -57 -325 -16 -38 16 -79
66 -44 53 10 -4 15 -3 12 2 -3 5 -18 12 -32 15 -15 4 -34 15 -43 25 -23 25
-114 46 -140 32 -26 -14 -36 -48 -20 -67 10 -12 23 -14 56 -9 26 4 43 2 43 -4
0 -5 9 -13 20 -16 11 -3 20 -12 20 -20 0 -15 31 -25 81 -25 20 0 42 -6 48 -14
9 -11 4 -15 -31 -20 -24 -3 -59 -2 -78 4 -19 6 -62 10 -94 9 -43 -2 -61 1 -64
11 -3 9 1 11 12 7 9 -4 15 -3 11 2 -3 5 1 12 7 15 9 3 7 10 -7 21 -32 27 -157
16 -191 -16 -37 -35 -48 -58 -34 -74 7 -8 9 -19 5 -25 -4 -7 1 -6 14 2 19 12
20 13 3 21 -12 5 -10 6 7 3 14 -3 31 0 38 6 23 18 14 0 -11 -24 -16 -15 -22
-29 -17 -41 5 -14 14 -3 39 45 39 76 40 89 7 58 -14 -13 -25 -19 -25 -12 0 12
48 52 63 52 5 0 7 -13 4 -29 -5 -25 -3 -30 16 -34 18 -4 18 -4 -5 -6 -23 -1
-32 -10 -53 -51 -14 -27 -23 -50 -20 -50 4 0 31 23 61 51 57 55 72 51 28 -7
-33 -43 -25 -53 24 -30 109 53 220 71 269 43 18 -10 7 -12 -70 -12 -83 0 -99
-3 -161 -32 -37 -18 -77 -33 -87 -33 -28 0 -24 -38 5 -49 13 -5 41 -7 62 -5
22 3 77 1 124 -4 73 -7 91 -6 125 9 41 19 100 25 108 12 3 -5 -11 -8 -31 -9
-48 -1 -126 -35 -97 -42 46 -10 103 -53 108 -81 3 -15 18 -42 32 -60 44 -52
194 -144 293 -181 50 -19 92 -38 92 -42 0 -18 -20 -15 -54 8 -39 27 -62 26
-73 -1 -7 -20 31 -62 115 -123 34 -25 62 -52 62 -59 0 -7 15 -23 34 -35 43
-28 72 -84 55 -104 -27 -33 81 -116 122 -94 12 7 31 2 63 -15 32 -17 63 -25
98 -25 l51 0 -47 35 c-65 50 -96 115 -61 129 9 3 24 -5 38 -21 36 -42 60 -63
73 -63 25 0 24 18 -1 37 -24 17 -24 19 -10 41 19 26 37 28 55 7 7 -8 17 -12
22 -9 15 10 -53 51 -122 74 -87 29 -156 65 -142 74 7 4 12 2 12 -4 0 -7 7 -10
15 -6 8 3 15 1 15 -4 0 -5 7 -6 17 -3 11 4 14 3 9 -5 -4 -7 -3 -12 3 -12 5 0
13 5 16 10 4 6 11 7 17 4 6 -4 8 -2 5 3 -4 6 -22 14 -40 17 -19 4 -59 19 -90
35 -34 17 -53 23 -50 15 6 -17 -9 -18 -24 -3 -6 6 -17 8 -23 4 -9 -6 -6 -13
11 -26 15 -12 20 -22 14 -26 -6 -5 -11 -17 -11 -28 0 -11 5 -23 11 -27 6 -5 4
-8 -6 -8 -24 0 -99 76 -100 102 -1 13 -1 38 0 57 2 18 -2 37 -9 41 -8 5 -4 16
14 35 25 26 25 29 10 47 -12 12 -31 18 -64 18 -33 0 -68 11 -126 39 -78 38
-140 79 -101 67 9 -3 17 0 17 5 0 7 -11 9 -25 7 -14 -3 -25 -2 -25 2 0 3 -16
14 -36 24 -44 21 -39 31 9 18 71 -20 72 12 3 105 -60 80 -74 92 -137 119 l-54
23 66 1 c52 0 68 -4 73 -16 3 -8 2 -13 -2 -10 -5 3 -9 -2 -9 -10 0 -9 6 -13
14 -10 8 3 11 2 8 -4 -3 -5 10 -16 30 -26 19 -9 35 -21 35 -28 0 -6 11 -23 25
-38 28 -30 31 -44 13 -50 -9 -3 -9 -6 0 -12 7 -4 12 -3 12 3 0 7 9 6 26 -1 23
-11 29 -10 45 11 11 13 19 31 19 40 0 10 11 28 24 40 13 12 26 33 29 47 4 25
-7 33 -19 13 -5 -8 -9 -7 -16 4 -6 11 3 32 32 73 23 33 49 88 61 128 11 39 27
81 35 94 24 36 35 122 25 183 -6 39 -9 45 -10 22 0 -17 -5 -35 -11 -38 -5 -3
-10 -17 -10 -31 0 -36 -33 -123 -64 -169 -26 -38 -27 -39 -22 -10 13 69 18 92
33 160 43 195 44 198 24 225 -15 22 -16 30 -4 69 7 25 21 54 31 65 31 35 39
65 73 275 l12 75 -28 24 -28 24 -23 -54 c-25 -58 -32 -47 -9 17 17 46 15 49
-66 90 l-47 24 -153 -101 c-205 -135 -390 -248 -406 -248 -25 0 12 53 64 91
72 54 225 155 340 225 95 57 100 62 78 72 -13 6 -34 9 -46 6 -13 -2 -18 -2
-11 2 6 3 10 10 6 15 -7 12 -24 12 -24 0z m184 -210 c-68 -52 -90 -72 -71 -65
21 8 23 -9 2 -26 -8 -7 -15 -19 -15 -27 0 -8 -3 -12 -8 -10 -4 3 -32 -17 -62
-45 l-55 -50 65 47 c36 25 72 48 80 51 8 4 29 12 47 20 45 20 56 19 43 -7 -14
-26 -9 -32 19 -21 12 4 29 23 39 42 9 18 23 36 29 38 21 6 27 -27 9 -47 -9
-10 -15 -24 -13 -32 2 -8 2 -11 0 -6 -7 12 -40 8 -52 -6 -6 -8 -8 -16 -5 -19
3 -3 -20 -28 -50 -54 -31 -27 -56 -54 -56 -61 0 -6 -17 -21 -37 -33 -34 -21
-36 -23 -18 -31 11 -4 30 -8 43 -8 13 -1 22 -7 22 -17 0 -22 -35 -50 -100 -80
-30 -14 -57 -29 -60 -33 -3 -5 -24 -18 -48 -30 -24 -12 -64 -38 -90 -58 -26
-20 -63 -43 -82 -52 -19 -8 -48 -24 -63 -34 -22 -15 -31 -16 -42 -7 -24 20
-17 38 25 65 56 36 51 52 -15 47 -16 -2 -17 0 -5 8 8 5 11 10 6 10 -17 0 45
42 77 51 47 13 53 20 61 62 8 44 -2 47 -40 12 -30 -28 -52 -31 -79 -11 -29 21
-14 38 76 85 140 72 194 109 209 138 8 15 22 39 32 52 10 13 18 28 18 33 0 11
-97 -60 -164 -119 -57 -51 -74 -54 -82 -13 -4 17 -11 27 -17 23 -6 -3 -7 -1
-3 6 4 6 11 9 16 6 4 -3 13 1 19 9 6 7 25 16 42 20 16 3 44 17 62 30 33 25
186 108 222 119 11 4 35 18 54 32 19 14 38 25 44 25 5 0 -8 -13 -29 -29z m143
-43 c-3 -7 -5 -2 -5 12 0 14 2 19 5 13 2 -7 2 -19 0 -25z m-357 -123 c0 -7
-92 -75 -102 -75 -5 0 4 11 20 25 17 14 34 25 40 25 5 0 15 7 22 15 12 15 20
19 20 10z m323 -67 c-4 -7 -8 -21 -9 -30 -1 -10 -2 -25 -3 -33 0 -8 -14 -21
-31 -30 -37 -19 -35 -19 -36 8 -1 12 -4 28 -5 35 -2 7 16 24 41 38 52 28 54
28 43 12z m-616 -214 c-3 -3 -12 -4 -19 -1 -8 3 -5 6 6 6 11 1 17 -2 13 -5z
m-392 -20 c-34 -26 -55 -36 -55 -25 0 5 9 13 20 16 11 3 20 11 20 16 0 5 8 9
18 9 15 -1 15 -2 -3 -16z m-106 -67 c-2 -1 -13 -9 -24 -17 -19 -14 -19 -14 -6
3 7 9 18 17 24 17 6 0 8 -1 6 -3z m591 -128 c-7 -11 -14 -18 -17 -15 -3 3 0
12 7 21 18 21 23 19 10 -6z m-104 -21 c4 -7 4 -10 -1 -6 -4 4 -16 3 -26 -3
-12 -6 -19 -6 -19 0 0 9 15 18 32 20 4 1 10 -5 14 -11z m804 -1008 c8 -5 11
-10 5 -10 -5 0 -17 5 -25 10 -8 5 -10 10 -5 10 6 0 17 -5 25 -10z m35 -62 c28
-13 34 -38 8 -38 -15 0 -14 -2 3 -15 15 -12 11 -12 -18 2 -21 9 -38 23 -38 30
0 7 -8 13 -17 13 -15 0 -16 2 -3 10 20 13 34 12 65 -2z"/>
<path d="M4456 5325 c-11 -8 -15 -15 -9 -15 6 0 16 7 23 15 16 19 11 19 -14 0z"/>
<path d="M4319 5253 c-13 -15 -12 -15 9 -4 23 12 28 21 13 21 -5 0 -15 -7 -22
-17z"/>
<path d="M4127 5208 c-31 -31 -31 -32 -2 -8 16 14 34 28 40 32 5 5 6 8 2 8 -4
0 -22 -15 -40 -32z"/>
<path d="M4216 5135 c-11 -8 -15 -15 -10 -15 6 0 19 7 30 15 10 8 15 14 9 14
-5 0 -19 -6 -29 -14z"/>
<path d="M3990 5690 c-9 -6 -10 -10 -3 -10 6 0 15 5 18 10 8 12 4 12 -15 0z"/>
<path d="M3928 5664 c-16 -8 -28 -17 -28 -19 0 -7 60 17 66 26 8 13 -7 10 -38
-7z"/>
<path d="M4202 5562 c-13 -10 -20 -21 -16 -25 12 -12 21 -8 38 18 19 29 11 32
-22 7z"/>
<path d="M4130 5510 c-40 -35 -34 -38 21 -10 22 12 37 25 34 30 -9 15 -17 12
-55 -20z"/>
<path d="M4656 5463 c-15 -78 -17 -114 -7 -130 9 -16 10 -15 9 7 -3 48 2 91
10 86 4 -2 6 11 4 30 -5 41 -9 43 -16 7z"/>
<path d="M1221 5415 c-46 -35 -93 -72 -104 -83 -19 -19 -18 -20 39 -47 78 -36
87 -44 73 -61 -7 -9 -8 -19 -3 -27 5 -7 0 -3 -11 9 -11 12 -37 31 -58 43 l-37
21 6 -25 c7 -28 -12 -34 -36 -12 -8 6 6 -10 30 -38 25 -27 60 -55 79 -62 19
-6 46 -21 61 -31 34 -26 135 -76 183 -91 39 -13 42 -17 27 -41 -9 -13 -10 -13
-10 0 0 13 -1 13 -10 0 -6 -9 -5 -17 3 -22 20 -13 -7 -9 -54 7 -57 20 -123 53
-176 88 -25 16 -44 23 -48 17 -3 -5 5 -15 19 -21 14 -7 23 -16 20 -20 -3 -5 3
-6 12 -2 12 4 15 3 10 -5 -4 -7 3 -14 19 -18 14 -3 25 -11 25 -16 0 -5 6 -8
13 -5 19 7 47 -12 41 -27 -3 -7 2 -16 10 -19 9 -4 16 -14 16 -23 0 -11 -5 -14
-17 -10 -15 6 -15 4 2 -14 10 -11 25 -20 34 -20 9 0 34 -9 56 -20 l39 -20 -33
34 c-35 36 -38 68 -8 74 10 2 38 -13 64 -35 25 -21 71 -57 102 -81 30 -24 59
-50 64 -58 10 -17 1 -34 -19 -34 -15 0 -86 35 -134 66 -25 16 -25 16 -5 -2 23
-21 39 -54 27 -54 -9 0 -72 45 -81 57 -14 18 -74 45 -80 36 -3 -6 -13 -12 -21
-15 -9 -3 22 -22 73 -46 69 -32 87 -45 87 -62 0 -12 4 -19 8 -16 12 7 116 -26
174 -54 30 -15 48 -31 51 -45 2 -13 -1 -22 -7 -21 -6 1 -26 6 -44 10 -21 5
-38 4 -47 -4 -10 -8 -15 -8 -21 1 -5 8 -3 10 7 4 9 -5 11 -5 4 2 -9 9 -64 31
-138 53 -24 8 -28 6 -25 -8 2 -9 9 -17 15 -17 7 0 22 -8 33 -17 11 -10 26 -18
32 -18 8 0 9 -3 2 -10 -6 -6 -23 -5 -48 2 -32 10 -35 13 -20 20 14 6 12 7 -7
3 -33 -6 -41 2 -27 25 15 24 -5 50 -37 50 -23 0 -50 -22 -39 -33 6 -6 -12 -3
-36 6 -8 3 -24 8 -35 12 -11 4 -40 9 -64 11 -24 2 -51 6 -60 10 -14 5 -13 7 4
14 17 7 15 9 -11 9 -20 1 -40 11 -59 31 -35 36 -27 47 22 32 65 -20 105 -23
99 -6 -3 8 -1 14 5 14 5 0 -6 14 -26 31 -19 17 -35 40 -35 52 0 20 0 21 15 1
14 -16 14 -15 0 14 -9 18 -26 37 -39 42 -27 10 -68 59 -63 74 2 6 15 12 28 13
13 0 29 1 34 2 6 1 -2 11 -16 24 -32 27 -52 64 -45 82 6 18 -46 75 -69 75 -15
0 -15 -2 1 -17 17 -17 17 -18 -7 -21 -13 -2 -30 -9 -36 -14 -15 -12 -17 -64
-3 -73 6 -3 10 -11 10 -16 0 -6 -5 -7 -10 -4 -18 11 -60 -23 -59 -48 1 -32
110 -191 134 -195 11 -2 25 -9 30 -14 7 -8 5 -9 -7 -5 -28 10 89 -126 125
-145 36 -20 64 -23 69 -7 2 7 12 7 29 0 15 -5 38 -8 53 -7 14 2 26 0 26 -5 0
-9 276 -101 354 -119 27 -6 70 -11 95 -12 72 -1 85 -24 39 -70 -10 -10 -16
-23 -13 -28 4 -6 3 -10 -2 -10 -4 0 -22 -14 -40 -30 -18 -17 -39 -30 -48 -30
-42 0 -74 -47 -45 -65 18 -11 10 -26 -10 -20 -15 5 -18 3 -14 -10 6 -14 0 -13
-42 4 -27 10 -72 31 -100 45 -29 14 -56 26 -62 26 -5 0 -15 7 -22 15 -7 8 -16
13 -20 10 -4 -3 -13 1 -19 9 -9 11 -9 15 1 19 7 3 1 6 -13 6 -14 1 -34 8 -45
16 -19 14 -19 14 3 15 63 1 70 29 13 55 -22 10 -40 21 -40 26 0 4 -10 5 -22 1
-14 -3 -19 -1 -14 6 11 17 -27 2 -40 -17 -9 -12 -8 -18 5 -28 14 -12 14 -12
-4 -7 -16 5 -17 4 -5 -5 8 -6 23 -11 33 -11 10 0 20 -7 24 -15 3 -9 23 -25 45
-36 21 -11 36 -24 33 -29 -4 -6 -2 -10 3 -10 5 0 12 -12 15 -27 4 -20 1 -33
-13 -44 -19 -16 -18 -17 25 -40 26 -14 39 -26 33 -30 -6 -4 3 -7 22 -6 27 2
33 -2 36 -22 4 -21 1 -23 -23 -17 -16 3 -57 11 -93 16 -96 16 -164 50 -189 97
-15 28 -20 33 -21 18 0 -12 -5 -26 -12 -33 -7 -7 -8 -12 -2 -12 5 0 2 -5 -6
-10 -12 -8 -12 -10 5 -10 32 -1 139 -63 151 -88 11 -22 42 -51 55 -52 4 0 10
7 13 16 3 8 2 12 -3 9 -5 -3 -12 -1 -16 5 -8 13 41 13 66 -1 11 -5 19 -18 18
-27 -3 -35 2 -42 26 -42 14 0 36 -7 49 -15 21 -14 28 -14 67 0 24 9 57 18 73
21 17 2 33 10 38 17 6 9 8 9 8 0 0 -8 10 -4 25 9 21 18 24 28 19 54 l-6 33 51
7 c32 4 51 11 51 20 0 7 16 16 35 20 46 8 51 18 20 38 -53 35 -6 38 70 6 11
-5 31 -12 45 -15 l25 -6 -28 25 c-15 14 -24 26 -18 26 5 0 17 7 26 16 15 15
19 14 56 -15 21 -18 39 -29 39 -26 0 4 -23 32 -50 63 -27 31 -50 60 -50 64 0
18 24 6 72 -36 50 -44 88 -63 88 -45 0 5 -4 9 -9 9 -5 0 -11 9 -14 20 -3 12
-12 18 -24 16 -13 -3 -23 5 -32 25 -7 16 -17 27 -22 24 -5 -4 -17 -2 -26 4
-16 8 -14 10 10 16 20 5 33 2 47 -10 15 -13 25 -15 46 -8 24 8 28 15 27 44 -1
19 -4 41 -7 49 -3 9 9 35 29 63 30 39 39 46 59 41 17 -4 30 1 45 17 11 13 21
26 21 30 0 24 -23 61 -45 71 -31 14 -32 24 -3 31 17 5 19 9 9 20 -6 8 -20 17
-31 20 -17 4 -19 1 -14 -18 3 -12 1 -26 -5 -29 -6 -4 -11 -2 -11 5 0 8 -4 8
-16 -2 -13 -10 -17 -10 -25 2 -5 8 -9 22 -9 32 0 25 -29 79 -39 72 -14 -8 -34
23 -36 55 -3 35 1 36 28 13 19 -17 19 -17 12 6 l-7 24 35 -22 36 -22 65 22
c70 22 80 37 49 71 -15 17 -15 18 5 18 25 0 40 37 22 54 -10 8 -11 8 -7 0 4
-7 0 -15 -9 -18 -11 -4 -15 -2 -11 7 3 8 -21 20 -75 36 -51 16 -74 27 -66 32
9 6 7 9 -9 9 -12 0 -30 3 -40 6 -15 5 -15 4 -3 -5 11 -8 12 -11 2 -11 -27 0
-272 118 -405 196 -123 71 -136 82 -139 109 -2 22 -9 31 -26 33 -13 2 -24 -3
-28 -12 -5 -13 -14 -11 -61 9 -44 20 -53 21 -42 8 8 -9 -16 -1 -53 20 -36 20
-72 37 -80 37 -7 -1 -51 -30 -97 -65z m60 -252 c13 -16 12 -17 -3 -4 -17 13
-22 21 -14 21 2 0 10 -8 17 -17z m248 -75 c13 -10 20 -18 15 -18 -5 0 -18 7
-28 15 -10 8 -23 12 -29 8 -5 -3 -13 1 -18 8 -6 10 -9 11 -9 2 0 -7 -8 -13
-17 -13 -13 0 -14 3 -5 12 9 9 7 15 -6 25 -12 9 -3 8 28 -4 25 -9 56 -25 69
-35z m122 -40 c1 -7 1 -16 0 -20 0 -5 2 -7 7 -6 8 3 227 -158 287 -211 22 -20
39 -39 37 -43 -1 -5 3 -7 9 -6 6 2 27 -26 47 -61 41 -74 54 -169 26 -192 -13
-10 -23 -4 -69 41 -30 29 -52 57 -50 60 3 4 -4 15 -15 25 -11 10 -20 15 -20
11 0 -4 -15 3 -32 16 -18 13 -37 23 -41 23 -13 0 -37 37 -31 46 9 15 21 10 56
-18 l33 -28 -33 43 c-50 62 -14 54 42 -10 25 -29 46 -56 46 -60 0 -5 5 -8 10
-8 6 0 3 11 -6 25 -12 18 -13 25 -4 25 9 0 7 6 -5 20 -9 10 -20 18 -24 17 -3
-1 -26 15 -51 35 -25 20 -89 71 -142 113 -76 59 -98 82 -98 100 0 14 -9 29
-20 35 -25 13 -26 27 -2 33 31 8 42 7 43 -5z m-551 -8 c0 -5 -4 -10 -10 -10
-5 0 -10 5 -10 10 0 6 5 10 10 10 6 0 10 -4 10 -10z m-79 -105 c23 -90 23 -88
-7 -68 -36 23 -77 112 -62 130 6 8 20 13 31 11 15 -2 24 -19 38 -73z m776 23
c3 -7 -8 -2 -25 10 -17 13 -35 28 -39 34 -3 7 8 2 25 -10 17 -13 35 -28 39
-34z m-721 5 c-11 -11 -17 4 -9 23 7 18 8 18 11 1 2 -10 1 -21 -2 -24z m1030
-30 c-3 -7 0 -15 5 -19 7 -4 7 -10 0 -17 -8 -8 -18 -4 -37 15 -19 19 -23 28
-13 33 8 5 10 4 5 -3 -4 -7 -2 -12 4 -12 8 0 10 9 5 27 -6 27 -6 27 15 8 11
-10 18 -25 16 -32z m-156 -109 c14 -15 -12 5 -57 45 -46 41 -83 76 -83 78 0 7
111 -91 140 -123z m-882 61 c7 -16 8 -26 1 -30 -5 -4 -8 -3 -7 2 1 4 -3 18
-10 31 -7 12 -9 22 -4 22 5 0 14 -11 20 -25z m631 -89 c81 -99 85 -105 69
-102 -37 7 -88 37 -88 52 0 12 6 15 21 11 18 -5 18 -3 7 11 -34 43 -69 68 -90
64 -3 -1 -12 6 -20 16 -11 15 -11 16 3 5 16 -13 29 -8 29 9 0 5 -4 7 -8 4 -5
-3 -9 1 -9 9 0 21 19 4 86 -79z m-509 -26 c8 -5 11 -10 5 -10 -5 0 -17 5 -25
10 -8 5 -10 10 -5 10 6 0 17 -5 25 -10z m750 -60 c0 -5 -2 -10 -4 -10 -3 0 -8
5 -11 10 -3 6 -1 10 4 10 6 0 11 -4 11 -10z m-9 -87 c13 -16 12 -17 -3 -4 -10
7 -18 15 -18 17 0 8 8 3 21 -13z m-21 -38 c0 -7 10 -25 22 -40 13 -17 16 -26
8 -23 -8 2 -24 24 -37 48 -27 51 -28 57 -8 40 8 -7 15 -18 15 -25z m-73 7 c7
-4 8 -13 4 -20 -6 -9 -12 -7 -26 8 -14 15 -15 20 -4 20 8 0 19 -4 26 -8z
m-140 -49 c-7 -6 -46 10 -41 18 3 5 14 3 24 -3 11 -7 18 -13 17 -15z m120 -37
c-2 -6 -13 -12 -24 -14 -16 -2 -21 1 -18 15 2 10 4 19 4 20 4 7 41 -12 38 -21z
m38 -5 c-3 -6 -11 -11 -17 -11 -6 0 -6 6 2 15 14 17 26 13 15 -4z m335 -59 c0
-5 -14 -19 -32 -32 l-32 -23 23 31 c21 30 41 42 41 24z"/>
<path d="M1997 4733 c14 -35 33 -68 33 -55 0 14 -28 72 -35 72 -2 0 -1 -8 2
-17z"/>
<path d="M2048 4631 c9 -16 19 -28 21 -25 6 6 -21 54 -30 54 -5 0 0 -13 9 -29z"/>
<path d="M1980 4591 c5 -11 15 -23 21 -27 6 -3 3 5 -6 20 -20 30 -30 35 -15 7z"/>
<path d="M4701 5374 c0 -11 3 -14 6 -6 3 7 2 16 -1 19 -3 4 -6 -2 -5 -13z"/>
<path d="M4626 5252 c-5 -18 -5 -36 -2 -39 7 -7 19 43 13 59 -2 7 -7 -2 -11
-20z"/>
<path d="M1030 5195 c0 -2 20 -13 44 -25 24 -11 50 -28 58 -37 9 -12 9 -15 1
-9 -7 4 -13 2 -13 -3 0 -15 15 -14 29 2 8 11 7 18 -7 29 -16 14 -112 51 -112
43z"/>
<path d="M4594 5176 c-3 -8 -4 -23 -2 -33 3 -11 6 -6 9 15 6 34 2 42 -7 18z"/>
<path d="M2160 5150 c18 -12 30 -13 30 -2 0 4 -10 9 -22 9 -18 2 -20 0 -8 -7z"/>
<path d="M2200 5139 c0 -5 68 -29 85 -29 4 0 2 6 -5 14 -6 8 -18 12 -26 9 -8
-3 -14 -1 -14 4 0 5 -9 9 -20 9 -11 0 -20 -3 -20 -7z"/>
<path d="M2400 5146 c0 -2 8 -10 18 -17 15 -13 16 -12 3 4 -13 16 -21 21 -21
13z"/>
<path d="M2403 5085 c0 -8 4 -12 9 -9 5 3 6 10 3 15 -9 13 -12 11 -12 -6z"/>
<path d="M4551 5084 c0 -11 3 -14 6 -6 3 7 2 16 -1 19 -3 4 -6 -2 -5 -13z"/>
<path d="M2240 5070 c14 -4 32 -8 40 -9 13 -1 13 0 0 9 -8 5 -26 9 -40 9 l-25
-1 25 -8z"/>
<path d="M1150 5034 c0 -11 3 -24 8 -28 4 -4 7 -13 7 -19 0 -7 8 -13 18 -15 9
-2 17 2 17 8 0 6 -4 8 -10 5 -5 -3 -7 0 -4 8 2 7 -4 25 -15 38 -20 23 -20 23
-21 3z"/>
<path d="M1162 4946 c6 -14 15 -26 20 -26 10 0 -7 36 -22 45 -6 4 -5 -5 2 -19z"/>
<path d="M882 4880 c0 -19 2 -27 5 -17 2 9 2 25 0 35 -3 9 -5 1 -5 -18z"/>
<path d="M2471 4870 c0 -8 4 -22 9 -30 12 -18 12 -2 0 25 -6 13 -9 15 -9 5z"/>
<path d="M1307 4819 c7 -7 15 -10 18 -7 3 3 -2 9 -12 12 -14 6 -15 5 -6 -5z"/>
<path d="M2343 4822 c-9 -6 -7 -11 7 -19 14 -10 19 -9 23 1 9 23 -7 32 -30 18z"/>
<path d="M3422 4818 c-18 -24 -44 -80 -33 -73 6 3 20 24 31 46 20 39 21 50 2
27z"/>
<path d="M3861 4714 c0 -11 3 -14 6 -6 3 7 2 16 -1 19 -3 4 -6 -2 -5 -13z"/>
<path d="M1080 4686 c0 -2 7 -7 16 -10 8 -3 12 -2 9 4 -6 10 -25 14 -25 6z"/>
<path d="M3317 4683 c-4 -3 -7 -11 -7 -17 0 -6 5 -5 12 2 6 6 9 14 7 17 -3 3
-9 2 -12 -2z"/>
<path d="M4260 4650 c-12 -8 -9 -10 13 -10 15 0 27 5 27 10 0 13 -20 13 -40 0z"/>
<path d="M880 4646 c0 -2 8 -10 18 -17 15 -13 16 -12 3 4 -13 16 -21 21 -21
13z"/>
<path d="M980 4609 c0 -17 47 -65 55 -57 4 3 -8 21 -24 39 -20 22 -31 28 -31
18z"/>
<path d="M3516 4574 c-23 -23 -20 -30 4 -9 11 10 20 20 20 22 0 7 -9 2 -24
-13z"/>
<path d="M5498 4559 c-21 -11 -38 -23 -38 -28 0 -10 65 -61 77 -61 5 0 20 -11
33 -25 14 -14 35 -35 48 -47 12 -12 22 -30 22 -39 0 -17 39 -53 48 -44 6 6
-133 258 -144 262 -5 1 -26 -7 -46 -18z m22 -50 c0 -5 -9 -4 -19 3 -11 7 -17
16 -14 20 5 10 33 -10 33 -23z"/>
<path d="M1380 4446 c0 -2 7 -6 15 -10 8 -3 15 -1 15 4 0 6 -7 10 -15 10 -8 0
-15 -2 -15 -4z"/>
<path d="M3620 4425 c-7 -9 -8 -15 -2 -15 5 0 12 7 16 15 3 8 4 15 2 15 -2 0
-9 -7 -16 -15z"/>
<path d="M1151 4348 c13 -13 34 -36 47 -52 12 -16 25 -26 28 -23 3 3 21 -1 40
-9 34 -14 34 -14 22 6 -12 19 -137 100 -154 100 -4 0 4 -10 17 -22z"/>
<path d="M4489 4334 c-11 -22 -10 -27 11 -47 l24 -22 -19 23 c-21 25 -13 38
25 44 l24 3 -26 12 c-23 10 -27 9 -39 -13z"/>
<path d="M4470 4270 c0 -13 18 -22 24 -11 3 5 -1 11 -9 15 -8 3 -15 1 -15 -4z"/>
<path d="M4547 4259 c3 -11 10 -19 15 -19 6 0 23 -9 38 -20 21 -15 27 -26 23
-43 -5 -22 -5 -22 10 -2 15 19 15 22 -11 44 -15 13 -27 29 -27 34 0 6 -12 14
-26 18 -23 6 -26 4 -22 -12z"/>
<path d="M3604 4256 c-10 -8 -16 -17 -12 -21 8 -8 48 13 48 25 0 14 -13 12
-36 -4z"/>
<path d="M4482 4195 c32 -31 64 -55 70 -52 16 5 -52 71 -95 93 -27 13 -22 6
25 -41z"/>
<path d="M2297 4220 c3 -11 9 -20 13 -20 5 0 6 9 3 20 -3 11 -9 20 -13 20 -5
0 -6 -9 -3 -20z"/>
<path d="M3639 4214 c-9 -8 -23 -16 -31 -17 -19 -3 -154 -93 -164 -109 -4 -7
8 -1 27 13 60 46 139 80 139 60 0 -6 -4 -11 -10 -11 -15 0 -151 -106 -183
-143 -16 -18 -43 -64 -62 -103 -18 -40 -38 -73 -44 -75 -12 -4 -61 -140 -61
-169 0 -22 -16 -35 -25 -20 -3 5 -15 10 -26 10 -10 0 -19 2 -19 4 0 1 11 34
25 72 26 71 34 128 39 274 3 81 -3 78 -18 -11 -4 -19 -13 -44 -21 -55 -14 -18
-15 -16 -11 21 3 22 3 32 0 23 -3 -10 -10 -18 -15 -18 -5 0 -9 -34 -9 -75 0
-43 -4 -75 -10 -75 -6 0 -10 29 -10 68 0 37 -3 118 -7 180 -7 132 -22 144 -39
31 -7 -41 -12 -64 -13 -53 -1 18 -18 34 -37 34 -2 0 -4 -26 -4 -58 0 -46 -3
-59 -15 -59 -19 0 -21 73 -2 80 6 2 0 6 -16 9 -24 5 -27 3 -20 -16 13 -38 9
-120 -7 -138 -8 -9 -21 -24 -29 -33 -11 -14 -15 -14 -22 -4 -5 9 -12 10 -18 4
-15 -15 4 -41 21 -29 15 12 28 12 45 1 7 -4 14 1 19 15 7 19 9 13 15 -29 9
-66 88 -198 124 -207 38 -10 75 -56 75 -93 0 -18 4 -33 10 -33 11 0 -1 -204
-13 -216 -2 -2 -22 3 -44 12 -35 14 -40 20 -41 50 -1 21 3 34 11 34 9 0 9 2
-1 8 -15 10 -21 65 -12 133 6 42 4 49 -9 47 -9 -2 -18 -16 -21 -33 -5 -30 -26
-37 -23 -6 1 9 -9 30 -23 46 l-25 30 7 -45 c3 -25 7 -49 8 -54 0 -5 -5 -11
-11 -13 -18 -6 -34 42 -32 92 2 37 5 42 23 38 19 -4 19 -3 4 7 -21 13 -24 30
-4 30 9 0 12 8 8 25 -2 14 -8 22 -13 19 -5 -3 -9 1 -9 8 -1 8 -7 5 -17 -7 -14
-18 -15 -18 -9 -1 3 10 1 25 -6 34 -11 13 -9 14 12 7 22 -6 23 -5 9 6 -13 10
-15 19 -8 34 9 19 9 19 5 -2 -3 -15 0 -20 10 -16 25 9 15 31 -26 52 -42 22
-56 14 -18 -11 18 -12 19 -17 9 -34 -11 -16 -12 -16 -7 -1 3 10 2 15 -4 12 -5
-3 -15 5 -22 19 -12 27 -23 33 -33 16 -3 -5 1 -10 9 -10 12 0 14 -5 6 -25 -5
-14 -5 -27 0 -30 4 -3 10 1 13 7 10 28 12 -1 7 -82 -3 -59 -7 -77 -12 -60 -4
14 -8 37 -8 51 0 33 -9 41 -26 24 -18 -18 -18 -26 1 -19 11 5 15 -1 14 -22 0
-25 -1 -26 -9 -9 -8 18 -9 18 -10 -5 -1 -24 -2 -23 -15 8 -8 17 -15 32 -17 32
-2 0 -3 -28 -4 -63 -1 -46 1 -53 5 -27 6 32 7 30 14 -28 7 -50 5 -69 -7 -87
-11 -17 -14 -37 -9 -74 4 -37 2 -51 -7 -51 -6 0 -14 9 -17 20 -9 33 -30 21
-24 -13 1 -5 -3 -6 -9 -2 -6 4 -10 -4 -10 -19 0 -14 -7 -29 -17 -34 -11 -7
-14 -15 -8 -28 8 -18 8 -18 12 1 5 20 40 54 57 55 5 0 3 -7 -4 -15 -10 -12 -8
-14 9 -10 13 2 21 -1 21 -10 0 -7 6 -15 13 -18 7 -3 21 -39 31 -81 19 -83 31
-100 22 -33 -3 23 -3 33 0 22 3 -11 10 -24 15 -29 8 -9 4 35 -12 108 -4 22 -4
47 1 55 7 13 12 9 23 -19 9 -19 18 -52 22 -72 8 -45 35 -74 35 -38 0 20 4 22
32 16 39 -8 88 -38 70 -44 -7 -2 -10 -13 -6 -27 3 -12 1 -26 -5 -29 -6 -4 -11
-14 -11 -23 0 -14 2 -14 18 -1 10 8 42 15 79 17 57 2 63 0 79 -24 13 -20 14
-31 6 -48 -9 -18 -11 -19 -11 -4 -1 23 -8 22 -42 -12 l-28 -29 30 -38 c17 -21
33 -50 36 -64 2 -14 14 -30 26 -36 14 -5 21 -16 19 -28 -2 -10 1 -15 7 -12 14
9 25 -37 15 -66 -13 -42 -35 -67 -52 -60 -15 5 -15 4 1 -12 16 -17 17 -20 2
-42 -27 -41 6 -28 47 19 21 23 38 37 38 32 0 -6 -11 -22 -24 -36 -32 -35 -70
-113 -56 -117 5 -2 10 -11 10 -19 0 -13 -3 -13 -16 -2 -13 10 -17 10 -25 -2
-7 -11 -9 -8 -9 10 0 20 -2 21 -15 11 -8 -7 -15 -20 -15 -30 0 -10 7 -23 15
-30 8 -7 15 -21 15 -31 0 -10 5 -21 10 -24 6 -3 10 -12 10 -19 0 -16 -61 -28
-75 -15 -13 12 -95 11 -95 -1 0 -5 -10 -10 -21 -10 -18 0 -19 -3 -9 -15 12
-14 6 -35 -10 -35 -5 0 -12 11 -16 24 -4 16 -15 26 -32 29 -15 3 -45 10 -66
15 -32 9 -43 7 -65 -8 -41 -30 -71 -29 -94 2 -21 28 -17 52 5 30 7 -7 18 -12
25 -12 10 0 10 5 1 25 -8 18 -17 24 -30 19 -12 -3 -18 0 -18 10 0 9 -7 16 -15
16 -10 0 -15 -10 -15 -29 0 -17 -4 -32 -9 -36 -6 -3 -6 -18 0 -38 5 -17 9 -54
9 -82 0 -50 44 -192 74 -237 15 -22 72 -57 130 -78 23 -9 26 -13 16 -25 -10
-12 -9 -15 4 -15 9 0 16 -4 16 -10 0 -11 -33 -14 -44 -3 -7 7 -19 10 -66 16
-15 2 -38 12 -53 22 -15 10 -30 15 -34 12 -3 -4 5 -11 18 -16 16 -7 19 -10 7
-10 -35 -2 -66 20 -158 109 -52 50 -90 89 -83 86 6 -4 14 -2 18 4 4 6 11 8 16
5 11 -8 11 -3 -1 29 -10 28 -25 137 -23 174 1 12 3 34 3 50 1 15 7 33 13 40 5
7 7 15 4 18 -3 3 1 17 8 31 8 15 12 30 9 35 -3 4 -1 8 4 8 9 0 37 -50 34 -63
-1 -4 3 -6 9 -5 6 2 14 -3 17 -11 3 -9 0 -11 -8 -6 -8 5 -11 4 -7 -2 11 -18
57 -2 62 21 11 52 10 61 -7 60 -14 -1 -18 6 -18 32 0 20 -9 44 -22 59 -23 26
-48 33 -48 13 0 -8 -3 -9 -10 -2 -6 6 -8 18 -4 28 7 18 91 86 106 86 13 0 38
26 38 39 0 6 9 15 20 21 17 9 20 8 21 -12 1 -21 2 -20 11 5 7 19 7 36 1 50 -6
12 -11 44 -12 71 -1 27 -8 65 -16 83 -12 29 -13 37 -1 48 16 16 10 59 -10 76
-18 15 -18 43 1 59 8 7 15 22 14 34 0 18 -2 17 -11 -6 -5 -16 -14 -28 -19 -28
-5 0 -8 -36 -8 -79 1 -127 -22 -135 -36 -13 -4 34 -12 65 -17 68 -6 4 -5 10 3
16 11 7 9 8 -5 6 -24 -4 -35 17 -72 132 -14 47 -31 90 -36 97 -5 7 -7 17 -3
22 3 6 0 8 -8 5 -10 -4 -15 2 -14 21 0 35 -19 54 -35 36 -10 -11 -10 -13 0 -7
15 9 15 -3 -1 -30 -8 -14 -19 -20 -32 -17 -11 2 -26 5 -33 5 -7 1 -16 14 -19
30 -4 20 -10 27 -20 24 -8 -3 -12 -2 -10 2 2 4 -5 15 -15 25 -18 17 -19 17
-16 0 2 -10 7 -21 13 -25 5 -4 7 -10 3 -13 -4 -4 -23 10 -42 30 -48 49 -153
100 -172 84 -22 -18 -17 -27 36 -57 41 -24 110 -97 110 -117 0 -3 -22 -4 -50
-1 -28 2 -50 0 -50 -5 0 -5 -25 -8 -55 -7 -34 1 -50 6 -42 11 7 5 2 6 -13 2
-14 -3 -61 -10 -105 -15 -44 -5 -93 -11 -110 -14 -34 -4 -48 10 -35 35 14 24
-30 69 -68 69 -37 0 -44 8 -30 33 9 17 8 19 -7 14 -9 -4 -26 0 -38 8 -12 8
-16 15 -10 15 7 0 15 -4 18 -10 3 -5 11 -10 17 -10 7 0 6 6 -2 15 -14 17 -85
21 -75 5 3 -5 2 -10 -4 -10 -5 0 -5 -12 2 -31 11 -27 10 -32 -13 -49 -51 -39
-103 -29 -58 11 l23 21 -35 -21 c-19 -11 -35 -26 -35 -33 0 -7 -7 -19 -15 -25
-13 -11 -13 -14 0 -23 8 -5 27 -7 43 -4 31 6 32 3 13 -35 -13 -25 -13 -28 2
-28 9 -1 36 6 58 14 23 8 50 13 60 10 15 -4 15 -5 -4 -6 -13 0 -21 -5 -17 -10
7 -12 -31 -25 -45 -16 -5 3 -10 -1 -10 -9 0 -9 -7 -16 -15 -16 -8 0 -15 4 -15
10 0 15 -32 -1 -60 -28 -14 -14 -18 -22 -10 -17 8 5 2 -4 -13 -18 -15 -15 -41
-34 -58 -42 -16 -9 -29 -21 -29 -28 0 -7 -20 -23 -45 -35 -44 -21 -58 -45 -32
-54 23 -9 39 2 26 18 -7 8 -7 14 -1 14 5 0 15 -7 22 -15 10 -12 6 -22 -24 -55
-35 -38 -66 -98 -66 -126 0 -8 10 -14 23 -14 18 0 19 -2 7 -10 -8 -5 -10 -10
-4 -10 12 0 78 48 159 116 68 56 193 144 205 144 6 0 29 9 50 20 22 11 40 16
40 10 0 -5 9 -10 20 -10 11 0 20 5 20 10 0 6 9 10 21 10 11 0 17 5 14 10 -3 6
4 10 17 10 20 -1 21 -2 6 -11 -34 -20 -9 -69 36 -69 16 0 26 -9 36 -35 8 -19
17 -35 22 -35 4 0 8 -4 8 -10 0 -5 -9 -10 -19 -10 -11 0 -23 -5 -26 -10 -5 -8
-11 -8 -20 0 -17 14 -47 1 -43 -19 2 -10 15 -17 35 -19 17 -2 37 -10 43 -18 7
-8 29 -14 49 -14 24 0 32 -3 22 -9 -21 -13 -4 -31 30 -31 16 0 29 -4 29 -9 0
-5 17 -15 38 -21 51 -17 61 -28 40 -44 -22 -16 -22 -20 -1 -42 17 -16 15 -17
-40 -11 -60 8 -69 1 -39 -26 12 -11 36 -17 67 -17 43 0 46 -2 34 -17 -13 -15
-11 -16 19 -10 21 4 47 1 70 -9 25 -10 51 -13 80 -9 38 6 42 4 42 -14 0 -23
25 -29 33 -8 4 9 7 9 18 0 11 -11 9 -16 -7 -28 -24 -18 -29 -18 -44 0 -19 23
-49 18 -59 -9 -11 -26 -62 -42 -90 -27 -12 7 -28 2 -58 -17 -35 -22 -42 -33
-47 -69 -3 -24 -9 -63 -12 -87 l-6 -43 -55 -6 c-30 -3 -103 -17 -162 -32 -58
-14 -201 -48 -317 -75 -201 -47 -275 -68 -246 -69 7 -1 10 -6 6 -12 -4 -8 3
-9 26 -4 24 5 31 4 25 -5 -6 -9 1 -10 26 -5 19 4 45 9 59 11 23 4 22 3 -5 -10
-16 -9 -36 -15 -43 -16 -7 0 -27 -7 -44 -16 -24 -12 -28 -18 -17 -25 8 -5 19
-9 24 -9 6 0 4 4 -4 9 -21 14 24 25 48 12 22 -12 91 5 156 39 34 18 36 20 13
17 -29 -4 -38 7 -15 17 6 3 -1 4 -16 1 -17 -3 -26 -2 -23 3 3 6 23 13 43 17
21 3 75 18 121 32 46 13 86 22 89 20 3 -3 -14 -11 -37 -18 -24 -7 -39 -14 -34
-16 5 -1 63 15 129 38 66 22 102 38 80 34 -22 -3 -60 -8 -85 -10 -42 -5 -41
-4 13 10 32 8 79 14 105 12 26 -1 63 2 82 7 58 14 23 -8 -85 -54 -89 -38 -190
-90 -174 -90 3 0 54 22 111 49 58 27 125 55 148 62 23 7 44 19 47 26 3 7 9 13
15 13 5 0 6 -4 3 -10 -3 -5 -1 -10 4 -10 6 0 11 -6 11 -14 0 -8 11 -38 25 -68
14 -29 25 -64 25 -77 0 -34 48 -151 74 -180 11 -13 37 -31 56 -40 19 -9 55
-28 80 -41 25 -14 61 -29 80 -35 41 -13 52 -41 18 -48 l-23 -4 23 -2 c24 -1
31 -21 7 -21 -8 0 -15 -6 -15 -13 0 -8 -10 -19 -22 -25 -23 -10 -23 -11 5 -11
30 -1 34 -10 15 -30 -11 -11 -10 -12 0 -6 9 4 12 2 11 -6 -4 -17 19 -61 37
-72 8 -4 14 -15 14 -22 0 -8 4 -15 9 -15 5 0 14 -14 21 -30 7 -17 18 -30 24
-30 6 -1 23 -11 37 -23 29 -24 72 -86 52 -74 -7 5 -13 5 -13 0 0 -4 15 -15 32
-23 34 -16 98 -110 75 -110 -7 0 -51 -19 -99 -42 -85 -42 -109 -66 -107 -106
0 -12 3 -10 10 7 5 13 12 21 15 18 11 -11 -6 -43 -40 -76 l-34 -33 -53 41
c-30 23 -58 41 -64 42 -5 1 1 5 15 10 21 7 20 8 -9 4 -18 -3 -43 -15 -56 -27
l-23 -22 32 -18 c17 -10 48 -26 69 -35 20 -9 37 -22 37 -29 0 -7 10 -16 21
-19 12 -4 17 -10 12 -14 -13 -8 -24 -103 -14 -119 8 -13 41 -6 52 11 4 5 0 31
-8 59 -8 27 -12 61 -8 75 6 24 7 24 24 8 18 -16 19 -14 26 26 9 52 84 136 145
164 22 10 38 20 35 23 -8 9 27 42 45 42 9 0 26 -9 38 -20 12 -11 25 -21 29
-21 5 0 7 -7 5 -16 -3 -12 1 -14 15 -7 22 10 71 10 140 -1 46 -7 58 -4 102 19
57 29 61 30 61 16 0 -17 -110 -60 -169 -66 -54 -5 -55 -5 -36 12 18 15 18 16
2 10 -11 -3 -31 -9 -45 -12 -27 -7 -71 -49 -72 -70 0 -5 -13 -20 -30 -32 l-30
-23 -1 23 c-1 16 -4 11 -11 -14 -6 -21 -14 -38 -20 -38 -5 0 -6 -4 -3 -10 7
-11 -22 -70 -34 -70 -5 0 -7 -9 -4 -20 3 -12 0 -20 -6 -20 -7 0 -9 -4 -6 -10
3 -5 -1 -10 -9 -10 -9 0 -13 7 -11 18 2 11 -3 19 -11 19 -8 0 -14 -4 -14 -9 0
-5 -4 -6 -10 -3 -19 12 -10 -14 16 -45 98 -116 360 -207 610 -212 275 -6 492
50 607 156 44 40 82 113 54 103 -6 -2 -20 10 -31 27 -16 26 -19 28 -28 13 -14
-25 -27 -21 -67 22 -20 22 -50 43 -66 47 -33 8 -74 34 -75 47 0 5 8 6 19 2 25
-8 51 4 44 21 -3 8 -19 14 -37 15 -17 0 -25 3 -18 6 6 2 12 8 12 13 0 14 -32
21 -47 9 -7 -7 -16 -9 -20 -5 -3 3 -1 6 6 6 7 0 10 4 7 9 -3 5 -27 10 -53 10
-27 1 -66 6 -88 11 l-40 9 43 -3 c28 -3 40 -1 35 7 -4 6 0 8 10 4 10 -4 17 -1
18 6 0 7 5 1 11 -13 9 -21 11 -22 17 -8 4 13 10 15 21 8 19 -12 50 -13 50 -1
0 5 -17 12 -37 16 l-38 8 28 9 c15 5 27 14 27 19 0 5 16 2 37 -6 41 -17 56
-13 24 7 -23 14 -29 58 -8 59 16 1 -64 37 -85 38 -9 1 -26 13 -38 29 -12 15
-19 19 -16 9 7 -23 -7 -22 -29 3 -12 13 -21 17 -25 10 -5 -8 -15 -8 -34 0 -15
5 -47 10 -71 10 -41 0 -43 2 -48 32 -4 31 47 202 76 253 7 11 12 29 12 40 0
11 5 19 11 18 11 -2 38 126 29 135 -3 3 -11 -1 -20 -8 -13 -10 -15 -9 -15 8 0
23 22 42 28 24 2 -7 8 -12 14 -12 6 0 7 8 4 17 -4 10 -4 14 0 11 4 -4 20 9 35
29 22 27 29 46 29 79 0 49 6 53 43 24 45 -35 183 -245 224 -340 13 -30 21 -42
18 -27 -7 36 -65 161 -77 165 -4 2 -6 8 -2 13 3 5 0 9 -6 9 -6 0 -8 5 -4 12 4
6 3 8 -3 5 -10 -6 -17 2 -60 71 -15 23 -13 22 18 -8 19 -19 33 -38 31 -43 -2
-4 1 -6 5 -5 5 2 22 -10 37 -27 21 -23 20 -19 -5 15 -51 67 -138 158 -169 177
-25 14 -27 19 -17 40 13 30 25 29 122 -6 175 -62 325 -151 439 -260 38 -36 64
-57 58 -45 -6 11 -31 39 -55 61 -132 122 -337 238 -487 277 -34 8 -44 16 -42
29 2 11 -4 17 -15 17 -13 0 -15 2 -5 9 7 4 14 18 15 29 1 22 14 26 67 22 53
-3 259 -53 355 -85 55 -19 101 -32 103 -30 6 6 -152 63 -238 85 -47 12 -125
28 -174 35 -48 8 -90 16 -93 18 -2 3 -1 17 3 32 l7 27 101 -4 c85 -5 237 -35
268 -54 4 -3 8 -1 8 4 0 22 -181 60 -304 64 -84 3 -110 19 -62 38 70 26 358
29 481 5 21 -4 25 -3 15 3 -52 32 -249 39 -454 16 -57 -7 -58 -7 -45 14 12 19
11 23 -5 35 -17 12 -15 15 28 31 25 10 86 26 134 36 48 10 75 19 59 19 -26 1
-186 -32 -220 -44 -13 -6 -15 -2 -9 22 6 23 24 36 112 80 58 29 101 53 95 53
-5 0 -57 -23 -114 -50 -57 -28 -106 -49 -108 -47 -7 8 28 30 149 93 141 73
151 84 21 22 -48 -23 -92 -44 -97 -46 -5 -3 1 9 13 27 13 18 52 47 89 66 78
40 78 46 0 10 l-53 -25 -5 23 c-4 16 -8 18 -14 9 -4 -7 -5 -16 -2 -19 7 -7
-12 -33 -24 -33 -17 0 4 42 33 66 46 38 297 158 414 197 56 19 100 37 97 40
-6 6 -167 -48 -259 -86 -66 -28 -224 -112 -239 -127 -21 -21 -35 -11 -26 18 4
16 4 36 -1 44 -6 11 -1 22 16 38 17 16 25 34 25 57 0 27 6 36 38 53 20 11 73
40 117 63 59 32 81 50 83 66 2 15 0 21 -7 17 -6 -4 -11 -14 -11 -22 0 -8 -5
-14 -11 -14 -11 0 -5 15 19 42 11 14 12 21 3 32 -9 11 -6 16 20 25 18 6 40 11
51 11 26 0 34 27 14 48 -11 13 -26 17 -49 14 -27 -3 -41 2 -66 26 -29 26 -31
30 -14 37 10 5 25 7 33 7 8 -1 22 2 30 7 12 8 11 13 -5 31 -15 16 -26 19 -54
14 -30 -5 -34 -4 -23 7 6 7 28 12 47 11 26 -2 35 1 35 13 0 8 5 15 10 15 6 0
10 -5 10 -11 0 -5 5 -7 12 -3 8 5 9 2 5 -11 -8 -19 10 -48 24 -39 5 3 9 17 9
32 0 21 3 24 10 12 8 -12 10 -12 15 3 6 15 10 14 35 -10 16 -15 27 -30 24 -35
-3 -4 1 -6 8 -3 7 3 26 -6 42 -20 35 -30 20 -32 -34 -5 -45 23 -54 25 -44 9 3
-6 0 -16 -7 -21 -10 -7 -5 -8 16 -4 22 5 26 4 15 -4 -12 -8 -11 -10 8 -10 12
0 34 -7 47 -16 22 -14 23 -18 10 -31 -23 -22 -18 -57 12 -87 25 -25 25 -27 7
-40 -15 -12 -16 -16 -5 -30 15 -18 40 -16 68 3 10 7 0 -3 -21 -23 -22 -20 -33
-36 -26 -36 8 0 26 12 41 26 27 26 69 28 53 3 -5 -9 2 -10 24 -6 20 4 32 2 32
-4 0 -16 42 -48 65 -49 l20 -1 -20 -8 c-11 -5 -21 -5 -23 0 -4 9 -62 -23 -62
-34 0 -4 8 -7 18 -5 9 2 16 -2 15 -9 -3 -14 68 25 80 44 5 7 12 11 17 8 5 -3
19 4 30 15 l21 21 -43 19 c-23 10 -46 16 -52 13 -5 -3 -6 -1 -2 6 4 6 12 9 17
5 5 -3 16 0 24 6 11 9 12 16 2 33 -7 12 -18 26 -25 30 -7 5 -10 12 -7 17 3 5
-5 16 -17 24 -19 14 -21 19 -10 36 16 27 15 37 -8 70 -19 27 -19 29 -3 33 10
2 33 -7 51 -21 48 -34 65 -15 27 30 -82 98 -136 150 -151 144 -10 -4 -14 -14
-11 -26 3 -11 1 -20 -4 -20 -10 0 -12 12 -9 50 1 14 -1 22 -5 18 -4 -4 -20 1
-34 11 -18 13 -36 17 -56 14 -58 -11 -11 15 54 29 72 16 91 35 39 40 -21 2
-32 8 -30 16 2 11 -7 12 -38 7 -24 -4 -40 -3 -40 3 0 13 -78 44 -91 37 -5 -4
-9 0 -9 8 0 24 -56 42 -86 28 -31 -14 -34 -14 -34 0 0 5 15 16 34 24 35 15 66
49 66 72 0 20 -25 16 -74 -12 -37 -21 -53 -24 -88 -19 -24 4 -46 11 -49 16 -4
6 -19 3 -37 -6 -40 -20 -98 -14 -123 13 -11 11 -19 23 -19 26 0 3 21 5 47 5
35 0 71 12 149 50 96 47 131 70 104 70 -6 0 -9 4 -6 9 4 5 1 11 -6 13 -7 3 8
11 33 19 35 12 49 12 68 3 19 -10 27 -10 38 1 18 18 16 26 -4 18 -12 -5 -14
-3 -8 7 6 10 4 11 -6 4 -22 -14 -37 -13 -50 2 -16 19 -49 18 -114 -5 -69 -24
-71 -19 -5 10 35 15 50 27 48 38 -6 25 -58 18 -134 -18 -37 -17 -69 -29 -72
-26 -3 2 6 9 19 14 l24 10 -24 0 c-30 1 -20 12 22 27 21 7 32 17 32 30 0 16
-6 18 -35 16 -19 -1 -36 -7 -38 -12 -2 -6 -14 -7 -27 -4 -13 3 -33 -1 -48 -10
-26 -18 -52 -13 -61 10 -8 20 -23 18 -59 -8 -21 -14 -27 -16 -19 -6 8 10 11
26 7 37 -3 10 -1 22 5 26 16 10 12 25 -7 25 -15 0 -16 2 -3 10 10 6 16 6 18 0
2 -6 11 -10 19 -10 10 0 13 6 9 16 -3 9 -6 20 -6 25 0 14 -24 11 -41 -7z m-15
-90 c3 -8 2 -12 -4 -9 -6 3 -10 10 -10 16 0 14 7 11 14 -7z m101 -175 c-4 -13
-25 -37 -48 -53 l-42 -28 43 44 c23 24 42 50 42 58 0 7 2 11 5 8 4 -3 3 -16 0
-29z m-651 -69 c-6 -5 -24 21 -24 34 0 6 6 1 14 -10 8 -10 12 -21 10 -24z
m385 27 c-2 -1 -13 -9 -24 -17 -19 -14 -19 -14 -6 3 7 9 18 17 24 17 6 0 8 -1
6 -3z m-272 -39 c-3 -8 -6 -5 -6 6 -1 11 2 17 5 13 3 -3 4 -12 1 -19z m553 3
c0 -11 -8 -22 -18 -25 -9 -3 -23 -15 -30 -26 -12 -20 -11 -20 7 -11 11 6 30
11 43 10 l23 0 -24 -17 c-13 -9 -45 -24 -71 -33 -43 -14 -48 -14 -59 0 -10 14
-11 13 -8 -6 5 -22 -19 -41 -25 -21 -3 8 -11 7 -27 -2 l-24 -12 20 28 c30 42
56 63 121 100 68 39 72 40 72 15z m-620 -69 c0 -7 -4 -10 -10 -7 -5 3 -10 16
-10 28 0 18 2 19 10 7 5 -8 10 -21 10 -28z m870 -43 c0 -5 -4 -7 -10 -4 -5 3
-10 -1 -10 -10 0 -9 -5 -13 -10 -10 -8 5 -7 11 1 21 14 17 29 18 29 3z m57
-12 c-2 -7 -13 -13 -25 -15 -15 -2 -20 1 -17 10 7 17 48 22 42 5z m-677 -142
c-7 -9 -15 -13 -18 -10 -3 2 1 11 8 20 7 9 15 13 18 10 3 -2 -1 -11 -8 -20z
m-1680 -85 c0 -5 -4 -10 -10 -10 -5 0 -10 5 -10 10 0 6 5 10 10 10 6 0 10 -4
10 -10z m2462 -24 c16 -23 16 -24 1 -31 -10 -3 -14 -3 -11 1 4 4 2 16 -4 27
-10 20 -11 20 -24 2 -8 -10 -14 -14 -14 -9 0 11 21 34 30 34 3 0 13 -11 22
-24z m-12 -56 c0 -5 -2 -10 -4 -10 -3 0 -8 5 -11 10 -3 6 -1 10 4 10 6 0 11
-4 11 -10z m-1740 -16 c0 -14 -3 -14 -15 -4 -8 7 -15 14 -15 16 0 2 7 4 15 4
8 0 15 -7 15 -16z m1840 6 c0 -6 12 -22 26 -35 24 -22 25 -25 8 -25 -11 0 -27
9 -37 20 -19 22 -23 50 -7 50 6 0 10 -5 10 -10z m-774 -27 c-6 -15 -5 -15 13
1 11 10 24 15 30 12 13 -9 -13 -71 -30 -71 -13 0 -32 53 -23 67 9 15 16 8 10
-9z m159 -13 c-26 -28 -65 -27 -64 3 0 12 3 16 6 10 7 -18 38 -16 53 2 7 9 15
13 18 10 3 -3 -3 -14 -13 -25z m-1830 -10 c4 -6 -7 -10 -27 -10 -25 0 -29 3
-18 10 19 13 37 13 45 0z m1092 -62 c-3 -8 -6 -5 -6 6 -1 11 2 17 5 13 3 -3 4
-12 1 -19z m109 -15 c-11 -11 -17 4 -9 23 7 18 8 18 11 1 2 -10 1 -21 -2 -24z
m1323 6 c-15 -9 -32 -2 -24 11 3 5 13 6 21 3 12 -4 13 -8 3 -14z m-1429 -31
c-1 -8 -6 -6 -15 6 -20 26 -19 42 0 22 8 -8 15 -21 15 -28z m-750 -28 c0 -5
-4 -10 -10 -10 -5 0 -10 5 -10 10 0 6 5 10 10 10 6 0 10 -4 10 -10z m53 3 c-7
-2 -21 -2 -30 0 -10 3 -4 5 12 5 17 0 24 -2 18 -5z m2112 -24 c-5 -14 0 -28
16 -45 25 -27 22 -41 -4 -21 -21 15 -35 87 -18 87 8 0 10 -8 6 -21z m-2055
-35 c0 -3 -7 -12 -15 -20 -20 -20 -69 -14 -73 9 -3 14 4 17 42 17 25 0 46 -3
46 -6z m930 -4 c0 -5 -2 -10 -4 -10 -3 0 -8 5 -11 10 -3 6 -1 10 4 10 6 0 11
-4 11 -10z m1200 0 c0 -5 -2 -10 -4 -10 -3 0 -8 5 -11 10 -3 6 -1 10 4 10 6 0
11 -4 11 -10z m-1210 -66 c0 -14 -4 -22 -10 -19 -5 3 -10 17 -10 31 0 14 4 22
10 19 6 -3 10 -17 10 -31z m-1137 -81 c-7 -2 -19 -2 -25 0 -7 3 -2 5 12 5 14
0 19 -2 13 -5z m1742 -63 c17 -19 17 -19 -8 -7 -14 6 -23 15 -21 19 7 11 9 10
29 -12z m-1125 -60 c0 -5 -4 -10 -10 -10 -5 0 -10 -7 -10 -17 0 -9 -3 -14 -6
-10 -8 8 5 47 17 47 5 0 9 -4 9 -10z m-545 -160 c3 -5 2 -10 -4 -10 -5 0 -13
5 -16 10 -3 6 -2 10 4 10 5 0 13 -4 16 -10z m48 -17 c-7 -2 -19 -2 -25 0 -7 3
-2 5 12 5 14 0 19 -2 13 -5z m347 -163 c0 -5 -2 -10 -4 -10 -3 0 -8 5 -11 10
-3 6 -1 10 4 10 6 0 11 -4 11 -10z m63 -15 c-7 -21 -13 -19 -13 6 0 11 4 18
10 14 5 -3 7 -12 3 -20z m756 -31 c-27 -29 -33 -26 -17 8 7 15 18 24 26 21 10
-4 7 -12 -9 -29z m-741 -7 c8 -10 6 -13 -9 -13 -19 0 -24 7 -12 19 8 9 9 9 21
-6z m863 -74 c-28 -55 -51 -81 -57 -65 -3 6 -10 10 -15 6 -12 -7 -11 -1 7 46
24 60 46 54 24 -7 l-11 -28 25 30 c14 17 28 38 32 48 3 10 8 16 11 14 2 -3 -5
-22 -16 -44z m-1116 -53 c-8 -13 57 -152 84 -179 12 -12 18 -28 15 -38 -5 -14
-4 -15 4 -4 12 16 27 -3 16 -21 -4 -7 -3 -8 4 -4 11 7 35 -27 26 -37 -9 -8
-90 50 -108 78 -9 14 -14 31 -10 37 5 7 3 8 -5 4 -8 -5 -11 -3 -9 5 2 14 -24
61 -49 87 -20 20 -15 49 9 66 26 19 32 20 23 6z m-75 -77 c12 -38 29 -75 37
-83 11 -11 11 -6 -2 20 -15 30 -16 33 -2 22 9 -7 29 -41 45 -76 16 -34 43 -78
61 -98 36 -41 37 -44 14 -52 -10 -4 -27 3 -46 21 l-30 28 19 -30 18 -30 -32
29 c-33 31 -40 52 -21 58 12 4 -32 82 -59 105 -7 6 -15 22 -17 35 -2 13 -6 44
-10 71 -4 26 -5 47 -2 47 3 0 15 -30 27 -67z m574 -62 c-25 -38 -44 -52 -44
-33 0 19 58 87 67 78 2 -2 -9 -22 -23 -45z m-1134 -2 c-74 -21 -151 -38 -170
-36 -25 1 5 12 110 39 192 48 230 47 60 -3z m1743 3 c9 -8 17 -12 17 -9 0 4 9
-2 20 -13 11 -11 20 -29 20 -40 0 -11 5 -20 10 -20 19 0 10 -24 -16 -47 -15
-12 -24 -29 -21 -36 3 -8 0 -20 -6 -26 -6 -6 -8 -11 -4 -11 11 0 55 49 62 70
8 24 35 27 35 3 0 -10 -7 -37 -17 -61 -12 -32 -26 -48 -55 -63 -21 -11 -37
-24 -35 -31 2 -12 -95 -54 -158 -67 -22 -5 -68 -12 -102 -15 -52 -6 -63 -4
-63 8 0 8 -6 16 -12 19 -7 2 1 10 17 17 110 46 143 79 175 173 13 37 29 67 36
67 25 0 65 54 61 82 -4 28 3 28 36 0z m-280 11 c-7 -2 -19 -2 -25 0 -7 3 -2 5
12 5 14 0 19 -2 13 -5z m-886 -83 c7 -17 7 -32 2 -36 -5 -3 -9 4 -9 16 0 12
-4 18 -10 15 -5 -3 -10 -4 -10 -1 0 2 -3 11 -6 20 -4 10 -1 16 8 16 7 0 19
-13 25 -30z m-817 10 c-8 -5 -19 -10 -25 -10 -5 0 -3 5 5 10 8 5 20 10 25 10
6 0 3 -5 -5 -10z m97 -6 c-3 -3 -12 -4 -19 -1 -8 3 -5 6 6 6 11 1 17 -2 13 -5z
m32 -18 c-2 -2 -28 -14 -57 -25 -41 -16 -57 -19 -70 -10 -12 7 -13 9 -2 6 8
-2 35 4 60 14 42 16 79 25 69 15z m989 -21 c-3 -3 -9 2 -12 12 -6 14 -5 15 5
6 7 -7 10 -15 7 -18z m701 -556 c-19 -103 -22 -111 -35 -116 -38 -14 -52 46
-27 107 6 14 19 45 29 69 l17 43 13 -24 c10 -19 11 -38 3 -79z m-431 -24 c6
-20 16 -31 33 -35 18 -4 25 -14 27 -35 3 -23 12 -34 41 -47 21 -10 42 -18 47
-18 14 0 70 -49 57 -50 -7 0 -13 4 -13 9 0 6 -15 7 -34 4 -19 -3 -36 -1 -40 6
-4 6 -16 11 -26 11 -25 0 -51 27 -44 45 4 9 0 15 -10 15 -9 0 -16 -7 -16 -15
0 -20 -51 39 -68 78 -7 15 -12 49 -12 75 l1 47 25 -30 c13 -16 28 -43 32 -60z
m386 -114 c3 -5 -1 -14 -8 -20 -16 -13 -32 2 -21 19 8 12 22 13 29 1z m-54
-37 c0 -18 -14 -18 -29 0 -9 11 -9 15 1 19 17 6 28 -1 28 -19z m-50 -14 c0
-23 -16 -26 -36 -6 -12 13 -11 15 8 19 13 2 24 5 26 6 1 0 2 -8 2 -19z m-680
-327 c0 -7 -39 17 -46 28 -3 6 5 3 20 -6 14 -10 26 -19 26 -22z"/>
<path d="M3435 2231 c-3 -5 -2 -12 3 -15 5 -3 9 1 9 9 0 17 -3 19 -12 6z"/>
<path d="M4310 4196 c0 -2 7 -7 16 -10 8 -3 12 -2 9 4 -6 10 -25 14 -25 6z"/>
<path d="M4357 4183 c-18 -17 112 -131 133 -118 17 10 11 26 -15 47 -14 11
-22 25 -18 31 3 7 2 9 -2 4 -5 -4 -15 -1 -24 6 -22 18 -68 37 -74 30z"/>
<path d="M2430 4171 c0 -6 4 -13 10 -16 6 -3 7 1 4 9 -7 18 -14 21 -14 7z"/>
<path d="M3485 4172 c-18 -12 -38 -42 -29 -42 17 1 57 37 47 43 -5 3 -13 3
-18 -1z"/>
<path d="M3697 4155 c9 -30 22 -43 39 -41 21 3 23 21 2 21 -9 0 -24 9 -33 20
l-15 20 7 -20z"/>
<path d="M3235 4149 c-4 -6 -5 -12 -2 -15 2 -3 7 2 10 11 7 17 1 20 -8 4z"/>
<path d="M2360 4131 c0 -5 7 -15 17 -22 15 -13 15 -12 4 9 -12 23 -21 28 -21
13z"/>
<path d="M3260 4049 c0 -34 3 -60 6 -57 9 9 11 109 2 114 -4 3 -8 -23 -8 -57z"/>
<path d="M3326 4077 c-25 -32 -66 -119 -66 -139 0 -6 11 11 26 38 27 54 61 87
76 78 5 -3 18 3 29 15 19 20 19 20 0 31 -30 15 -38 13 -65 -23z"/>
<path d="M2057 4073 c-13 -13 -7 -25 7 -14 8 7 16 8 18 2 6 -18 42 -17 46 2 3
13 -3 17 -31 17 -18 0 -37 -3 -40 -7z"/>
<path d="M2165 4070 c-3 -6 1 -13 10 -16 19 -8 30 0 20 15 -8 14 -22 14 -30 1z"/>
<path d="M2250 4075 c0 -5 12 -23 26 -40 14 -16 21 -21 15 -10 -14 30 -40 61
-41 50z"/>
<path d="M3399 4053 c-13 -16 -12 -17 4 -4 16 13 21 21 13 21 -2 0 -10 -8 -17
-17z"/>
<path d="M2006 4035 c4 -8 7 -15 9 -15 2 0 5 7 9 15 3 9 0 15 -9 15 -9 0 -12
-6 -9 -15z"/>
<path d="M3328 4018 c-39 -59 -59 -111 -49 -121 8 -8 16 1 28 31 9 23 22 42
28 42 7 0 20 11 29 25 15 23 15 24 -1 18 -12 -5 -15 -2 -10 10 9 25 -8 21 -25
-5z"/>
<path d="M2390 4010 c0 -6 7 -10 15 -10 8 0 15 2 15 4 0 2 -7 6 -15 10 -8 3
-15 1 -15 -4z"/>
<path d="M1595 3949 c-9 -14 -2 -20 14 -10 8 6 9 11 3 15 -6 3 -14 1 -17 -5z"/>
<path d="M2357 3940 c10 -11 19 -20 21 -20 1 0 -2 9 -8 20 -6 11 -15 20 -20
20 -6 0 -2 -9 7 -20z"/>
<path d="M4297 3926 c-6 -14 19 -44 28 -34 7 6 -6 48 -15 48 -4 0 -10 -6 -13
-14z"/>
<path d="M2573 3838 c-6 -13 -14 -32 -17 -43 -5 -17 -3 -16 15 5 12 14 25 24
29 23 5 -1 6 7 3 17 -7 26 -17 25 -30 -2z"/>
<path d="M2765 3820 c3 -5 8 -10 11 -10 2 0 4 5 4 10 0 6 -5 10 -11 10 -5 0
-7 -4 -4 -10z"/>
<path d="M2826 3823 c5 -5 12 -12 16 -18 4 -6 8 -2 8 8 0 9 -7 17 -17 17 -9 0
-12 -3 -7 -7z"/>
<path d="M2506 3787 c-14 -10 -14 -15 -4 -27 7 -8 12 -13 11 -11 -1 2 2 12 8
23 13 25 7 31 -15 15z"/>
<path d="M2035 3751 c11 -13 19 -25 17 -27 -1 -3 11 -16 28 -30 33 -28 37 -45
16 -63 -10 -8 -19 -7 -37 8 -13 10 -43 28 -66 40 -24 12 -43 25 -43 30 0 13
-151 24 -163 12 -6 -6 -21 -11 -34 -11 -12 0 -27 -9 -33 -20 -8 -14 -8 -20 0
-20 6 0 8 -4 5 -10 -4 -6 11 -10 37 -9 36 0 39 2 21 9 -13 5 -23 16 -23 25 0
22 16 19 37 -8 36 -45 294 -107 336 -80 7 4 19 9 28 10 62 10 61 16 -8 67 -36
27 -72 49 -79 49 -7 0 -12 4 -11 9 1 5 -9 17 -23 26 l-25 16 20 -23z m95 -135
c0 -11 -19 -15 -25 -6 -3 5 1 10 9 10 9 0 16 -2 16 -4z"/>
<path d="M2815 3729 c-4 -6 -5 -12 -2 -15 2 -3 7 2 10 11 7 17 1 20 -8 4z"/>
<path d="M2711 3720 c0 -8 4 -24 9 -35 l9 -20 0 20 c0 11 -4 27 -9 35 -9 13
-10 13 -9 0z"/>
<path d="M4450 3705 c0 -26 26 -58 43 -52 20 6 18 24 -5 36 -13 6 -15 9 -5 7
26 -8 20 9 -8 22 -23 11 -25 10 -25 -13z"/>
<path d="M2170 3716 c0 -2 8 -10 18 -17 15 -13 16 -12 3 4 -13 16 -21 21 -21
13z"/>
<path d="M2557 3683 c3 -21 10 -39 15 -41 4 -2 8 -9 8 -14 0 -6 -3 -8 -7 -5
-3 4 -13 -2 -21 -14 -8 -11 -12 -21 -11 -23 2 -1 16 -10 31 -19 17 -11 25 -23
22 -34 -3 -10 1 -30 9 -45 13 -25 14 -25 25 -7 10 15 7 29 -13 75 -14 31 -23
60 -20 64 11 18 47 -5 61 -38 8 -19 17 -32 20 -29 9 9 -17 70 -33 80 -9 5 -11
17 -7 30 6 22 6 22 -11 2 -14 -17 -16 -17 -11 -3 4 13 -2 20 -19 24 -14 3 -25
12 -25 20 0 8 -4 14 -9 14 -6 0 -7 -17 -4 -37z m33 -13 c0 -5 -2 -10 -4 -10
-3 0 -8 5 -11 10 -3 6 -1 10 4 10 6 0 11 -4 11 -10z m-10 -74 c0 -3 -4 -8 -10
-11 -5 -3 -10 -1 -10 4 0 6 5 11 10 11 6 0 10 -2 10 -4z"/>
<path d="M2731 3650 c0 -8 4 -22 9 -30 12 -18 12 -2 0 25 -6 13 -9 15 -9 5z"/>
<path d="M2761 3633 c0 -4 4 -17 9 -28 8 -19 9 -19 9 2 1 12 -3 25 -9 28 -5 3
-10 3 -9 -2z"/>
<path d="M4463 3617 c4 -13 97 -39 97 -27 0 4 -8 10 -17 13 -10 3 -33 10 -51
16 -25 7 -32 7 -29 -2z"/>
<path d="M1825 3549 c-6 -17 -13 -20 -39 -16 -17 3 -25 3 -18 0 6 -2 12 -10
12 -16 0 -15 122 -15 127 -1 5 16 -20 41 -49 48 -21 5 -28 2 -33 -15z"/>
<path d="M2565 3550 c-3 -5 -1 -10 4 -10 6 0 11 5 11 10 0 6 -2 10 -4 10 -3 0
-8 -4 -11 -10z"/>
<path d="M2515 3490 c-3 -5 -1 -10 4 -10 6 0 11 5 11 10 0 6 -2 10 -4 10 -3 0
-8 -4 -11 -10z"/>
<path d="M2570 3475 c0 -4 17 -44 39 -88 21 -45 42 -91 45 -101 4 -10 9 -17
12 -14 7 8 -46 137 -73 177 -13 19 -23 30 -23 26z"/>
<path d="M2810 3456 c0 -8 4 -17 9 -20 5 -4 7 3 4 14 -6 23 -13 26 -13 6z"/>
<path d="M2780 3389 c0 -35 8 -35 15 -1 2 12 0 24 -6 27 -5 4 -9 -8 -9 -26z"/>
<path d="M1485 3392 c-52 -11 -68 -22 -55 -37 6 -8 8 -20 4 -27 -4 -7 3 -3 14
9 12 12 31 28 43 37 26 18 23 24 -6 18z"/>
<path d="M4885 3380 c5 -8 35 -48 67 -87 l59 -73 -48 -1 c-26 -1 -59 -1 -73
-1 -19 1 -21 -1 -6 -5 11 -3 25 -11 33 -18 7 -7 28 -23 48 -35 38 -23 37 -36
-2 -51 -17 -6 -30 -6 -39 2 -20 16 -110 -29 -106 -53 2 -10 -2 -18 -9 -18 -6
0 -8 -7 -5 -16 4 -10 2 -13 -6 -8 -8 5 -9 2 -5 -10 4 -10 7 -21 7 -24 0 -4 5
0 10 8 8 13 10 12 10 -2 0 -25 35 -23 95 6 45 22 47 25 22 25 -21 1 -28 5 -25
18 5 25 50 45 143 63 l80 16 -45 15 c-34 10 -46 20 -48 37 -4 28 26 29 83 2
70 -34 73 -21 4 16 -38 20 -107 73 -160 122 -51 48 -89 80 -84 72z"/>
<path d="M4100 3335 c7 -8 19 -15 27 -15 13 0 13 3 3 15 -7 8 -19 15 -27 15
-13 0 -13 -3 -3 -15z"/>
<path d="M1510 3330 c-8 -5 -10 -10 -5 -10 6 0 17 5 25 10 8 5 11 10 5 10 -5
0 -17 -5 -25 -10z"/>
<path d="M4150 3295 c0 -9 6 -12 15 -9 8 4 15 1 15 -5 0 -6 7 -11 15 -11 17 0
20 16 5 25 -22 14 -50 13 -50 0z"/>
<path d="M4159 3260 c-18 -12 11 -45 52 -59 26 -9 29 -8 29 12 -1 26 -59 60
-81 47z"/>
<path d="M4550 3209 c0 -5 -6 -7 -12 -4 -7 4 -5 0 4 -8 10 -8 14 -18 10 -22
-4 -5 -2 -5 4 -2 6 4 23 -4 38 -18 41 -38 37 -14 -6 28 -21 20 -38 32 -38 26z"/>
<path d="M4841 3173 c-1 -13 8 -27 20 -33 30 -17 39 -8 16 15 -11 11 -17 14
-13 8 4 -7 5 -13 1 -13 -3 0 -10 10 -15 23 l-9 22 0 -22z"/>
<path d="M4585 3110 c-3 -5 -3 -10 2 -11 4 0 -1 -5 -12 -10 -16 -8 -15 -8 8
-4 18 4 33 0 43 -10 14 -14 44 -21 44 -11 0 14 -35 36 -58 36 -21 0 -24 2 -12
10 9 6 10 10 3 10 -6 0 -15 -4 -18 -10z"/>
<path d="M4733 3094 c0 -9 5 -10 19 -3 10 5 18 12 18 14 0 2 -8 3 -18 2 -10 0
-19 -7 -19 -13z"/>
<path d="M1926 3055 c4 -8 8 -15 10 -15 2 0 4 7 4 15 0 8 -4 15 -10 15 -5 0
-7 -7 -4 -15z"/>
<path d="M2940 3053 c0 -10 8 -27 16 -38 15 -19 15 -18 12 14 -3 35 -28 57
-28 24z"/>
<path d="M4411 3009 c-32 -39 -27 -56 6 -19 10 10 28 23 41 27 20 8 21 9 4 19
-15 10 -23 5 -51 -27z"/>
<path d="M1423 2902 c-34 -26 -63 -51 -63 -55 0 -8 117 80 126 95 9 14 0 9
-63 -40z"/>
<path d="M4673 2923 c9 -2 23 -2 30 0 6 3 -1 5 -18 5 -16 0 -22 -2 -12 -5z"/>
<path d="M4386 2908 c10 -16 -18 -38 -49 -38 -17 0 -38 -6 -46 -14 -9 -8 -52
-28 -96 -45 -76 -29 -78 -30 -35 -26 25 2 62 11 83 20 22 9 36 11 32 6 -3 -6
-13 -11 -20 -11 -8 0 -12 -6 -9 -14 5 -14 -16 -25 -59 -31 -33 -4 -180 -54
-197 -66 -12 -9 -11 -10 5 -4 38 13 80 26 173 51 71 19 108 36 155 69 63 46
118 67 246 91 41 8 77 17 80 19 9 10 -45 4 -104 -10 -69 -16 -115 -19 -115 -6
0 5 -11 11 -25 13 -13 3 -22 1 -19 -4z"/>
<path d="M4315 2890 c-4 -7 3 -8 22 -4 38 9 42 14 10 14 -14 0 -29 -5 -32 -10z"/>
<path d="M2046 2864 c-5 -12 -2 -15 10 -10 8 3 18 6 20 6 3 0 2 5 -1 10 -9 15
-22 12 -29 -6z"/>
<path d="M1890 2832 c0 -4 14 -13 30 -20 17 -8 27 -18 23 -25 -4 -6 0 -8 10
-4 20 7 21 3 7 -23 -7 -13 -7 -21 2 -26 6 -4 9 -3 6 2 -3 5 8 19 23 32 22 18
29 20 29 9 0 -9 -6 -18 -12 -20 -8 -4 -9 -6 -2 -6 17 -1 37 27 30 44 -3 8 -12
12 -21 9 -8 -4 -15 -1 -15 6 0 8 -10 10 -34 6 -25 -5 -35 -3 -40 9 -5 15 -36
22 -36 7z"/>
<path d="M3975 2785 c-37 -18 -42 -23 -20 -18 36 7 106 42 85 42 -8 1 -37 -10
-65 -24z"/>
<path d="M4668 2793 c-10 -2 -15 -10 -11 -19 7 -20 26 -17 41 6 13 21 8 23
-30 13z"/>
<path d="M4480 2782 c0 -4 18 -6 40 -4 22 2 40 6 40 8 0 2 -18 4 -40 4 -22 0
-40 -3 -40 -8z"/>
<path d="M4133 2704 c-18 -8 -33 -18 -33 -24 0 -5 16 -2 35 7 19 9 35 20 35
25 0 4 -1 8 -2 7 -2 0 -18 -7 -35 -15z"/>
<path d="M4510 2709 c-14 -6 -33 -8 -43 -5 -25 6 -116 -78 -114 -105 2 -23 6
-23 34 -4 12 8 30 16 41 18 20 3 54 31 47 39 -3 3 7 3 23 1 21 -4 30 1 44 25
24 40 15 49 -32 31z"/>
<path d="M4866 2704 c-7 -17 17 -29 74 -38 43 -7 44 -6 28 11 -10 9 -36 22
-57 29 -32 9 -41 9 -45 -2z"/>
<path d="M4938 2713 c7 -3 16 -2 19 1 4 3 -2 6 -13 5 -11 0 -14 -3 -6 -6z"/>
<path d="M4252 2666 c-80 -55 -87 -62 -37 -40 38 17 125 74 125 81 0 12 -34
-4 -88 -41z"/>
<path d="M3910 2660 c-8 -5 -10 -10 -5 -10 6 0 17 5 25 10 8 5 11 10 5 10 -5
0 -17 -5 -25 -10z"/>
<path d="M5060 2635 c13 -14 26 -25 28 -25 3 0 -5 11 -18 25 -13 14 -26 25
-28 25 -3 0 5 -11 18 -25z"/>
<path d="M2845 2640 c3 -6 -1 -13 -9 -16 -9 -3 -16 -10 -16 -16 0 -10 49 23
50 35 0 4 -7 7 -16 7 -8 0 -12 -5 -9 -10z"/>
<path d="M3229 2593 c-13 -16 -12 -17 4 -4 16 13 21 21 13 21 -2 0 -10 -8 -17
-17z"/>
<path d="M2760 2578 c0 -16 23 -19 37 -5 14 13 13 15 -11 14 -14 -1 -26 -5
-26 -9z"/>
<path d="M4450 2580 c0 -5 5 -10 11 -10 5 0 7 5 4 10 -3 6 -8 10 -11 10 -2 0
-4 -4 -4 -10z"/>
<path d="M5015 2561 c-3 -5 -1 -12 5 -16 5 -3 10 1 10 9 0 18 -6 21 -15 7z"/>
<path d="M4015 2550 c-59 -7 -59 -7 25 -8 47 0 94 3 105 8 24 10 -37 10 -130
0z"/>
<path d="M4176 2552 c-3 -5 21 -12 53 -15 32 -4 65 -9 74 -13 9 -3 17 -2 17 4
0 6 -19 13 -42 17 -24 3 -55 8 -70 11 -14 3 -29 1 -32 -4z"/>
<path d="M4450 2535 l-22 -23 24 -4 c15 -2 22 -9 20 -19 -2 -12 4 -15 23 -11
14 2 28 9 32 16 3 6 2 8 -2 3 -5 -4 -17 0 -27 10 -16 14 -16 18 -3 33 25 27
-19 23 -45 -5z"/>
<path d="M4538 2553 c6 -2 18 -2 25 0 6 3 1 5 -13 5 -14 0 -19 -2 -12 -5z"/>
<path d="M4601 2529 c-13 -5 -21 -12 -18 -15 3 -3 18 1 34 10 31 17 21 20 -16
5z"/>
<path d="M5005 2520 c-3 -5 -25 -10 -48 -11 l-42 -1 44 -14 c41 -13 60 -28 61
-46 0 -4 -39 -28 -87 -52 -83 -41 -207 -76 -273 -76 -27 0 -27 -1 -24 -50 3
-45 1 -51 -25 -70 -16 -11 -33 -20 -39 -20 -15 0 -33 -26 -35 -49 -1 -12 -6
-20 -12 -18 -5 2 -23 -12 -40 -32 -16 -19 -25 -32 -18 -28 6 4 14 3 18 -3 4
-6 11 -7 17 -4 7 5 9 1 5 -9 -7 -18 10 -77 23 -77 4 0 10 -9 13 -19 3 -13 -3
-23 -22 -32 -14 -7 -32 -11 -38 -10 -21 3 -16 -5 32 -53 l44 -46 -23 -25 c-13
-14 -28 -25 -34 -25 -6 0 -19 -13 -29 -30 -9 -16 -23 -30 -30 -30 -18 0 -17
-2 17 -69 60 -119 91 -294 54 -308 -24 -9 -34 8 -56 98 -19 80 -83 237 -92
228 -3 -3 11 -52 30 -109 41 -124 53 -210 34 -245 -7 -13 -18 -22 -23 -18 -6
4 -7 1 -2 -6 4 -7 17 -10 30 -7 19 5 22 3 18 -14 -4 -16 -2 -19 13 -14 15 6
17 4 7 -6 -6 -7 -9 -19 -6 -28 4 -10 2 -13 -5 -8 -8 5 -12 -1 -13 -16 l0 -23
-9 23 c-5 12 -11 22 -14 22 -7 0 -6 -162 1 -173 3 -5 8 -4 13 2 4 7 5 -14 2
-46 -3 -32 -10 -61 -16 -65 -16 -11 -19 -2 -6 22 7 14 8 20 2 16 -7 -4 -12 11
-14 41 -2 27 -5 -15 -6 -92 -4 -214 -10 -274 -32 -345 -11 -36 -20 -65 -20
-66 0 0 6 -1 13 -1 7 0 13 14 13 31 1 17 7 44 13 61 l12 29 23 -29 c22 -28 23
-28 28 -7 10 37 36 15 44 -34 3 -25 4 -48 0 -51 -3 -3 -1 -12 6 -20 8 -10 7
-16 -5 -26 -9 -7 -13 -17 -9 -24 5 -8 25 0 67 25 127 77 125 75 126 150 0 55
2 63 10 42 6 -14 9 -42 7 -62 -2 -21 -2 -38 0 -38 7 0 153 112 223 171 74 64
78 70 59 114 -18 43 -40 124 -37 137 2 7 2 10 -1 5 -2 -4 -14 12 -25 35 -12
24 -20 45 -17 48 3 3 5 12 5 20 -1 8 3 21 8 28 6 8 3 29 -9 60 -10 26 -17 54
-16 64 2 9 -2 19 -8 23 -6 4 -10 47 -10 105 0 77 -4 102 -16 114 -8 9 -19 14
-24 11 -15 -9 -22 15 -9 31 6 8 9 17 5 21 -11 11 -36 -31 -30 -51 4 -13 2 -16
-6 -11 -7 4 -10 19 -6 36 5 27 5 27 -25 17 -16 -6 -33 -8 -36 -4 -4 3 -1 6 6
6 9 0 11 9 6 32 -8 35 -27 58 -47 58 -9 -1 -9 -4 3 -13 15 -11 39 -49 39 -62
0 -3 -11 2 -25 11 -14 9 -23 20 -20 24 3 5 -3 13 -12 19 -10 6 -15 11 -10 11
4 0 1 11 -8 24 -13 19 -13 25 -2 35 8 6 17 8 20 4 4 -3 7 -3 7 1 0 14 -25 33
-38 28 -6 -2 -12 0 -12 5 0 21 14 21 42 2 16 -12 32 -18 36 -14 4 3 0 11 -8
15 -37 23 -42 28 -35 40 4 6 15 10 25 7 11 -3 21 1 24 9 3 8 12 14 21 14 8 0
15 9 15 20 0 25 -8 25 -29 1 -23 -26 -74 -36 -90 -17 -10 12 -8 21 14 51 32
41 42 43 55 11 8 -23 11 -24 39 -13 18 7 30 18 28 26 -1 9 7 17 18 19 14 2 16
0 7 -6 -7 -5 -10 -16 -6 -27 7 -17 8 -17 15 3 12 31 33 28 25 -3 -4 -14 -2
-25 4 -25 9 0 14 15 11 33 -1 5 4 7 11 5 7 -3 14 -10 14 -16 1 -7 2 -17 3 -23
0 -5 15 -15 31 -20 17 -6 30 -18 30 -27 0 -13 5 -12 19 7 17 22 18 22 26 5 5
-11 8 -26 7 -34 -1 -10 0 -11 4 -2 3 6 11 12 18 12 7 0 19 12 26 28 12 24 14
25 18 8 4 -21 32 -53 32 -38 0 11 35 52 44 52 4 0 5 -14 1 -30 -4 -17 -4 -49
0 -71 6 -35 9 -39 28 -33 18 5 20 4 10 -7 -19 -19 -16 -34 4 -18 9 8 14 9 10
2 -4 -6 -4 -18 -1 -27 7 -18 59 -46 86 -46 10 0 18 -7 18 -15 0 -12 -4 -13
-19 -5 -38 20 -42 10 -12 -27 17 -20 28 -39 26 -42 -3 -2 -12 4 -20 15 -8 10
-15 14 -15 9 0 -6 -9 -11 -21 -11 -16 0 -19 5 -14 21 15 50 14 53 -7 47 -15
-4 -19 -2 -13 7 20 33 -110 67 -135 36 -8 -9 -8 -15 -2 -15 6 0 13 6 15 13 3
6 6 3 6 -8 1 -11 -8 -26 -19 -33 -12 -7 -20 -8 -20 -2 0 5 -8 10 -17 10 -14 0
-15 -2 -4 -9 10 -7 11 -13 2 -30 -10 -17 -9 -21 3 -21 8 0 18 5 21 11 4 6 14
8 22 5 8 -3 11 -1 8 4 -3 6 1 10 9 10 8 0 17 -4 20 -9 8 -12 -20 -34 -33 -27
-5 3 -11 2 -13 -3 -1 -5 -14 -11 -28 -13 -14 -1 -34 -11 -44 -20 -21 -19 -41
-24 -31 -9 3 6 -3 15 -14 20 -25 14 -44 14 -36 1 3 -5 -1 -10 -9 -10 -19 0
-21 11 -4 28 9 9 7 13 -5 18 -9 3 -17 12 -17 20 0 8 -5 14 -11 14 -6 0 -9 -9
-6 -20 3 -12 -1 -23 -10 -29 -14 -7 -14 -9 0 -14 9 -3 18 1 21 9 3 8 11 14 17
14 9 0 8 -4 0 -14 -9 -11 -9 -19 0 -35 18 -27 60 -46 69 -30 8 13 17 2 16 -21
-1 -8 -10 -15 -21 -16 -53 -3 -51 -1 -52 -74 -1 -38 1 -70 3 -70 4 0 38 63 37
70 0 3 -3 17 -7 33 -5 20 -3 27 9 27 9 0 18 -7 21 -15 4 -8 11 -15 16 -15 6 0
5 7 -3 16 -10 13 -10 17 0 24 8 4 10 13 7 19 -4 7 1 11 13 11 13 0 19 -5 15
-14 -3 -7 7 -23 22 -35 33 -26 43 -27 41 -1 -1 11 -6 20 -12 20 -7 0 -12 13
-12 29 0 23 6 31 24 36 13 3 28 3 33 0 4 -3 10 0 12 6 3 9 9 9 25 1 20 -11 34
-48 38 -97 3 -31 28 -95 38 -95 4 0 5 -4 2 -10 -3 -5 0 -20 7 -32 14 -27 13
-22 23 -75 5 -27 13 -43 25 -46 13 -3 17 0 13 10 -4 9 0 14 8 12 8 -1 22 1 31
5 19 9 15 30 -12 61 -10 12 -16 32 -15 48 2 15 -1 27 -7 27 -6 0 -6 6 2 15 10
12 9 15 -5 15 -11 0 -15 5 -12 14 3 8 -1 17 -8 20 -8 3 -12 12 -9 20 3 8 -2
26 -11 40 -10 14 -13 26 -9 26 5 0 2 4 -6 10 -8 5 -11 12 -7 16 4 4 20 -4 35
-18 15 -13 43 -35 62 -48 19 -13 37 -27 40 -31 11 -14 56 -33 73 -30 9 1 20
-5 23 -14 5 -12 19 3 55 56 l48 73 -31 23 c-18 13 -34 23 -36 23 -3 0 -2 -20
1 -45 7 -46 -6 -63 -17 -22 -10 39 -7 87 7 87 7 0 29 -11 50 -25 20 -14 37
-23 37 -19 0 3 -13 26 -30 51 -16 24 -30 47 -30 50 0 12 50 -40 56 -59 3 -10
9 -18 14 -18 5 0 1 14 -8 30 -15 27 -15 32 -2 40 8 5 28 10 44 10 25 0 27 3
22 23 -4 12 -8 28 -10 35 -3 15 -132 122 -147 122 -5 0 -9 5 -9 10 0 7 6 7 19
0 36 -19 32 -10 -15 35 -32 32 -62 50 -101 61 -30 9 -57 22 -60 30 -9 25 17
44 61 44 27 0 36 3 27 9 -7 5 -11 13 -7 19 3 6 -10 13 -33 17 -53 9 -68 27
-48 58 14 22 13 24 -24 45 -21 12 -50 27 -64 32 -21 8 -18 2 20 -38 39 -40 57
-72 40 -72 -3 0 -32 19 -66 41 -62 43 -92 77 -87 100 2 8 -16 20 -47 30 -53
18 -64 31 -45 54 16 20 81 19 128 -1 20 -9 54 -22 74 -29 l37 -14 -29 42 c-46
68 -136 210 -149 235 -6 12 -19 22 -27 22 -10 0 -13 6 -9 19 3 10 3 26 -1 35
-7 18 -39 22 -49 6z m-295 -254 c0 -3 -4 -8 -10 -11 -5 -3 -10 -1 -10 4 0 6 5
11 10 11 6 0 10 -2 10 -4z m30 -166 c13 -8 13 -10 -2 -10 -9 0 -20 5 -23 10
-8 13 5 13 25 0z m10 -24 c0 -3 -4 -8 -10 -11 -5 -3 -10 -1 -10 4 0 6 5 11 10
11 6 0 10 -2 10 -4z m144 -211 c3 -8 1 -15 -4 -15 -6 0 -10 7 -10 15 0 8 2 15
4 15 2 0 6 -7 10 -15z m-144 -5 c0 -5 -4 -10 -9 -10 -6 0 -13 5 -16 10 -3 6 1
10 9 10 9 0 16 -4 16 -10z m255 -20 c-3 -5 -12 -10 -18 -10 -7 0 -6 4 3 10 19
12 23 12 15 0z m-87 -47 c-3 -15 -6 -14 -17 6 -11 19 -11 25 0 32 15 9 23 -9
17 -38z m98 -2 c16 13 18 1 5 -20 -5 -8 -16 -11 -26 -8 -9 4 -13 11 -10 17 3
5 0 10 -9 10 -8 0 -17 6 -19 13 -3 6 -6 2 -6 -11 -1 -13 -5 -21 -10 -18 -11 7
-2 46 11 46 5 0 6 6 3 13 -4 6 5 -3 20 -21 22 -26 30 -30 41 -21z m-398 -193
c81 -236 91 -345 46 -497 -6 -20 -27 1 -30 31 -21 188 -41 289 -80 411 -49
154 -50 159 -28 181 29 30 49 3 92 -126z m562 127 c0 -8 -7 -15 -16 -15 -14 0
-14 3 -4 15 7 8 14 15 16 15 2 0 4 -7 4 -15z m-33 -47 c-3 -8 -6 -5 -6 6 -1
11 2 17 5 13 3 -3 4 -12 1 -19z m69 -60 c1 -18 0 -25 -3 -15 -2 9 -8 17 -13
17 -4 0 -6 9 -3 20 7 28 16 17 19 -22z m-452 -143 c3 -8 2 -15 -3 -15 -5 0
-14 7 -21 15 -10 12 -10 15 3 15 8 0 17 -7 21 -15z m113 -417 c-2 -13 -4 -3
-4 22 0 25 2 35 4 23 2 -13 2 -33 0 -45z m-427 15 c0 -23 -4 -33 -9 -27 -9 8
-4 64 5 64 2 0 4 -17 4 -37z m299 -47 c2 -45 -6 -27 -12 29 -4 34 -3 42 3 25
4 -14 8 -38 9 -54z m118 -28 c-3 -8 -6 -5 -6 6 -1 11 2 17 5 13 3 -3 4 -12 1
-19z m-330 -30 c-3 -7 -5 -2 -5 12 0 14 2 19 5 13 2 -7 2 -19 0 -25z m83 22
c0 -5 -7 -10 -15 -10 -8 0 -15 5 -15 10 0 6 7 10 15 10 8 0 15 -4 15 -10z m10
-45 c0 -7 12 -29 26 -50 24 -36 25 -44 20 -114 -4 -42 -6 -84 -7 -94 0 -10 -6
-16 -12 -14 -16 5 -15 149 1 155 7 2 12 10 12 18 0 9 -4 12 -10 9 -5 -3 -10 1
-10 9 0 9 -7 16 -15 16 -14 0 -19 12 -16 33 0 4 -11 8 -26 8 -17 1 -21 3 -10
6 20 5 23 23 5 23 -9 0 -9 3 1 9 17 11 41 3 41 -14z m-66 -7 c-5 -7 -9 -19
-10 -26 -2 -8 -9 -21 -17 -30 -8 -10 -17 -24 -20 -32 -5 -13 -6 -13 -6 1 -1 9
8 27 20 40 12 15 16 25 9 27 -7 3 -5 11 6 23 19 21 31 19 18 -3z m323 -75 c-3
-10 -5 -4 -5 12 0 17 2 24 5 18 2 -7 2 -21 0 -30z m-274 -48 c-3 -67 -21 -141
-40 -157 -17 -14 -51 -1 -59 24 -9 30 5 125 22 139 8 6 14 17 14 23 0 19 23
37 45 34 18 -3 20 -10 18 -63z m114 3 c-2 -13 -4 -3 -4 22 0 25 2 35 4 23 2
-13 2 -33 0 -45z m170 -85 c-3 -10 -5 -2 -5 17 0 19 2 27 5 18 2 -10 2 -26 0
-35z"/>
<path d="M4788 2513 c7 -3 16 -2 19 1 4 3 -2 6 -13 5 -11 0 -14 -3 -6 -6z"/>
<path d="M4873 2503 c9 -2 23 -2 30 0 6 3 -1 5 -18 5 -16 0 -22 -2 -12 -5z"/>
<path d="M3180 2421 c0 -13 28 -33 33 -23 3 4 -3 13 -14 20 -10 7 -19 8 -19 3z"/>
<path d="M4427 2423 c-4 -3 -7 -11 -7 -17 0 -6 5 -5 12 2 6 6 9 14 7 17 -3 3
-9 2 -12 -2z"/>
<path d="M3995 2380 c-3 -6 1 -7 9 -4 18 7 21 14 7 14 -6 0 -13 -4 -16 -10z"/>
<path d="M2595 2370 c-16 -26 -2 -126 16 -115 10 7 10 68 0 105 -5 20 -9 22
-16 10z"/>
<path d="M4220 2372 c8 -5 26 -13 40 -16 17 -5 20 -4 10 2 -8 5 -26 13 -40 16
-17 5 -20 4 -10 -2z"/>
<path d="M4197 2302 c-37 -20 -63 -38 -58 -40 5 -2 7 -11 4 -20 -6 -15 -5 -15
10 -3 9 7 15 16 13 20 -3 4 12 8 32 9 34 3 41 7 45 29 2 14 22 31 30 26 4 -2
7 1 7 6 0 17 -10 14 -83 -27z"/>
<path d="M4099 2243 c-1 -5 -1 -11 -1 -14 1 -3 -15 -6 -35 -7 -64 -3 -48 -12
20 -12 66 0 67 0 50 20 -18 21 -32 26 -34 13z"/>
<path d="M1238 2182 c-49 -14 -86 -27 -84 -29 7 -7 176 39 176 48 0 5 -1 8 -2
8 -2 -1 -42 -13 -90 -27z"/>
<path d="M3762 2193 c-52 -10 -6 -18 94 -16 122 3 156 13 43 13 -41 0 -83 2
-94 4 -11 2 -30 2 -43 -1z"/>
<path d="M2010 2155 c-14 -8 -20 -14 -14 -15 5 0 19 7 30 15 24 18 16 19 -16
0z"/>
<path d="M2157 2151 c-43 -28 -45 -34 -4 -15 20 10 37 21 37 26 0 10 1 10 -33
-11z"/>
<path d="M1638 2153 c6 -2 18 -2 25 0 6 3 1 5 -13 5 -14 0 -19 -2 -12 -5z"/>
<path d="M1950 2130 c-8 -5 -10 -10 -5 -10 6 0 17 5 25 10 8 5 11 10 5 10 -5
0 -17 -5 -25 -10z"/>
<path d="M2064 2096 c-89 -51 -283 -204 -293 -231 -2 -5 14 6 35 26 67 61 136
115 219 168 44 29 82 54 84 57 10 9 -6 2 -45 -20z"/>
<path d="M4308 2059 c19 -20 15 -29 -18 -40 -16 -6 -30 -17 -30 -25 0 -8 -5
-14 -11 -14 -5 0 -7 5 -4 10 3 6 1 10 -5 10 -7 0 -10 -6 -7 -14 3 -8 -1 -20
-9 -26 -8 -7 -14 -24 -14 -39 l0 -26 20 33 c22 36 48 41 92 18 22 -12 27 -12
32 0 3 7 1 16 -4 19 -6 4 -10 17 -10 31 0 22 2 24 23 13 12 -6 33 -21 47 -33
l25 -21 -25 30 c-14 16 -29 33 -34 36 -4 4 -2 9 5 12 10 4 8 6 -4 6 -10 1 -32
8 -50 17 -21 11 -28 12 -19 3z"/>
<path d="M3748 2035 c38 -17 82 -53 145 -117 51 -51 78 -75 60 -53 -51 66
-159 164 -197 180 -59 25 -65 16 -8 -10z"/>
<path d="M4466 2013 c-4 -9 -4 -14 0 -10 4 4 14 1 23 -6 14 -11 15 -10 1 8 -8
11 -15 21 -16 23 -1 2 -5 -5 -8 -15z"/>
<path d="M3665 1918 c32 -38 60 -68 63 -68 7 0 -56 75 -89 105 -18 17 -6 0 26
-37z"/>
<path d="M4503 1943 c-15 -5 -18 -33 -4 -33 5 0 11 9 14 20 3 11 4 20 4 19 -1
0 -8 -3 -14 -6z"/>
<path d="M3580 1936 c0 -11 104 -147 130 -171 12 -11 -8 21 -45 70 -73 98 -85
113 -85 101z"/>
<path d="M4414 1933 c2 -2 12 -6 23 -8 10 -1 17 -9 15 -16 -3 -11 -1 -11 8 -2
17 16 5 31 -25 31 -14 0 -24 -3 -21 -5z"/>
<path d="M4651 1808 c-28 -35 -24 -41 23 -33 32 6 52 25 26 25 -5 0 -10 6 -10
14 0 26 -15 24 -39 -6z"/>
<path d="M4760 1800 c0 -5 5 -10 11 -10 5 0 7 5 4 10 -3 6 -8 10 -11 10 -2 0
-4 -4 -4 -10z"/>
<path d="M4756 1764 c-9 -23 -7 -34 5 -34 6 0 9 6 6 14 -3 7 0 19 6 25 8 8 8
11 0 11 -6 0 -14 -7 -17 -16z"/>
<path d="M4300 1764 c0 -17 17 -36 24 -26 3 5 -1 15 -9 22 -8 7 -15 9 -15 4z"/>
<path d="M4907 1747 c-4 -10 -2 -17 3 -17 5 0 15 -12 23 -26 11 -21 15 -23 25
-12 7 9 8 19 2 28 -7 11 -10 12 -10 2 0 -18 -20 -4 -29 21 -7 18 -8 18 -14 4z"/>
<path d="M2408 1724 c-39 -21 -35 -28 5 -8 37 19 44 24 31 24 -5 -1 -21 -8
-36 -16z"/>
<path d="M4720 1726 c0 -8 -6 -17 -12 -19 -9 -4 -8 -6 2 -6 8 0 22 4 30 9 11
7 11 10 2 10 -7 0 -10 5 -7 10 3 6 1 10 -4 10 -6 0 -11 -6 -11 -14z"/>
<path d="M5022 1700 c0 -14 2 -19 5 -12 2 6 2 18 0 25 -3 6 -5 1 -5 -13z"/>
<path d="M1727 1693 c-10 -9 -9 -23 2 -23 5 0 11 7 15 15 5 15 -5 20 -17 8z"/>
<path d="M4735 1679 c-11 -17 1 -21 15 -4 8 9 8 15 2 15 -6 0 -14 -5 -17 -11z"/>
<path d="M1653 1639 c-41 -44 -120 -144 -178 -224 l-58 -80 69 66 c38 36 97
87 131 113 66 49 78 72 65 120 l-8 28 -21 -23z"/>
<path d="M4702 1645 c4 -24 26 -50 36 -41 3 4 2 10 -4 14 -6 4 -16 16 -23 27
l-11 20 2 -20z"/>
<path d="M4670 1625 c-8 -9 -8 -15 -2 -15 12 0 26 19 19 26 -2 2 -10 -2 -17
-11z"/>
<path d="M5050 1630 c0 -5 5 -10 10 -10 6 0 10 5 10 10 0 6 -4 10 -10 10 -5 0
-10 -4 -10 -10z"/>
<path d="M5000 1600 c8 -5 20 -10 25 -10 6 0 3 5 -5 10 -8 5 -19 10 -25 10 -5
0 -3 -5 5 -10z"/>
<path d="M1761 1559 c-17 -22 -35 -56 -41 -74 -10 -31 -14 -34 -41 -28 -24 5
-38 -2 -84 -42 -30 -25 -55 -43 -55 -39 0 16 -83 -73 -120 -129 -22 -32 -49
-85 -61 -118 -22 -60 -34 -72 -42 -41 -2 9 -4 -2 -4 -25 -1 -80 49 -82 91 -5
l26 47 -25 -30 c-18 -22 -27 -27 -36 -18 -26 26 33 168 88 210 l31 24 -35 -67
-36 -68 32 23 c18 13 47 24 64 25 29 1 32 -1 31 -29 -1 -16 -13 -61 -28 -98
-26 -67 -31 -118 -17 -167 5 -17 7 -6 7 35 0 46 6 72 27 113 36 69 67 68 67
-3 0 -33 10 -55 25 -55 16 0 66 -46 58 -54 -3 -3 -11 1 -17 10 -10 13 -17 11
-49 -20 -41 -38 -45 -51 -21 -60 11 -4 15 -2 11 7 -3 7 1 21 8 30 11 16 13 16
19 2 3 -9 2 -13 -4 -10 -5 3 -8 -3 -7 -14 1 -17 4 -18 23 -8 30 17 114 112
119 135 2 11 15 42 29 70 35 68 44 153 22 187 -21 32 -33 25 -47 -28 -5 -24
-26 -60 -45 -82 l-35 -40 6 37 c5 35 98 302 131 380 30 69 -19 82 -65 17z
m-226 -208 c-3 -6 -16 -16 -28 -22 -21 -11 -21 -10 2 15 23 25 40 29 26 7z
m-175 -305 c0 -3 -4 -8 -10 -11 -5 -3 -10 -1 -10 4 0 6 5 11 10 11 6 0 10 -2
10 -4z m-15 -34 c-3 -3 -11 0 -18 7 -9 10 -8 11 6 5 10 -3 15 -9 12 -12z"/>
<path d="M4756 1591 c-4 -5 -2 -12 3 -15 5 -4 12 -2 15 3 4 5 2 12 -3 15 -5 4
-12 2 -15 -3z"/>
<path d="M2314 1568 l-19 -23 23 19 c21 18 27 26 19 26 -2 0 -12 -10 -23 -22z"/>
<path d="M4001 1555 c1 -19 18 -51 18 -35 0 8 -4 22 -9 30 -5 8 -9 11 -9 5z"/>
<path d="M4956 1503 c2 -16 1 -22 -2 -15 -3 6 -10 12 -15 12 -6 0 -5 -9 2 -21
10 -19 13 -20 26 -6 9 9 13 23 8 36 -9 30 -23 26 -19 -6z"/>
<path d="M5220 1510 c-13 -8 -12 -10 3 -10 9 0 17 5 17 10 0 12 -1 12 -20 0z"/>
<path d="M4150 1501 c0 -6 4 -13 10 -16 6 -3 7 1 4 9 -7 18 -14 21 -14 7z"/>
<path d="M3660 1450 c11 -22 23 -40 25 -40 3 0 -4 18 -15 40 -11 22 -23 40
-25 40 -3 0 4 -18 15 -40z"/>
<path d="M3549 1462 c6 -12 16 -24 22 -28 8 -4 8 -1 0 14 -6 12 -16 24 -22 28
-8 4 -8 1 0 -14z"/>
<path d="M3515 1447 c10 -15 20 -25 23 -22 3 3 -5 16 -17 28 l-23 22 17 -28z"/>
<path d="M1956 1432 c-3 -5 1 -9 9 -9 8 0 15 4 15 9 0 4 -4 8 -9 8 -6 0 -12
-4 -15 -8z"/>
<path d="M1804 1402 c-11 -15 -20 -39 -19 -54 2 -32 15 -51 15 -22 1 10 7 37
15 59 17 48 14 53 -11 17z"/>
<path d="M1900 1409 c-7 -11 -10 -23 -7 -25 2 -2 9 7 15 21 14 30 7 33 -8 4z"/>
<path d="M2409 1333 c-13 -16 -12 -17 4 -4 9 7 17 15 17 17 0 8 -8 3 -21 -13z"/>
<path d="M2674 1318 l-19 -23 23 19 c12 11 22 21 22 23 0 8 -8 2 -26 -19z"/>
<path d="M3875 1265 c114 -56 171 -109 160 -145 -3 -9 2 -31 11 -48 21 -43 28
-40 9 4 -17 40 -13 56 12 47 12 -5 14 -3 8 8 -25 40 -67 94 -85 106 -11 8 -20
23 -20 33 0 44 -31 69 -44 35 -4 -12 -11 -13 -33 -4 -19 7 -29 7 -31 0 -2 -6
-8 -11 -13 -11 -4 0 -6 6 -3 13 3 9 -8 13 -38 14 -40 2 -37 0 67 -52z"/>
<path d="M5050 1306 c0 -9 5 -16 10 -16 6 0 10 4 10 9 0 6 -4 13 -10 16 -5 3
-10 -1 -10 -9z"/>
<path d="M3761 1282 c17 -27 127 -92 144 -86 9 4 21 1 29 -5 7 -6 16 -8 19 -5
4 4 -7 14 -23 23 -16 9 -58 33 -93 54 -72 42 -94 47 -76 19z"/>
<path d="M5374 1283 c2 -10 6 -17 10 -16 15 3 16 11 2 22 -12 10 -14 9 -12 -6z"/>
<path d="M3761 1207 c2 -1 12 -9 22 -16 15 -12 17 -12 11 3 -3 9 -13 16 -22
16 -8 0 -13 -1 -11 -3z"/>
<path d="M1487 1156 c-11 -8 -14 -17 -8 -20 5 -4 15 3 21 14 13 23 11 24 -13
6z"/>
<path d="M2058 1119 c-38 -27 -68 -44 -68 -39 0 6 -5 10 -11 10 -6 0 -9 -6 -6
-14 6 -16 -29 -53 -40 -43 -4 4 2 13 12 21 18 13 18 15 2 30 -18 18 -24 41 -8
32 5 -4 7 4 4 15 -6 21 -7 20 -21 -6 -10 -20 -11 -30 -3 -34 16 -10 8 -61 -13
-93 -11 -17 -16 -37 -12 -51 3 -15 -2 -31 -17 -49 -18 -22 -28 -25 -54 -21
-19 3 -33 11 -33 19 0 18 -2 18 -63 -8 -57 -23 -83 -43 -99 -72 -9 -16 -8 -18
7 -12 15 5 16 4 5 -9 -7 -8 -16 -13 -20 -10 -4 2 -22 -13 -40 -35 -18 -22 -37
-37 -42 -34 -5 3 -8 2 -7 -3 4 -22 -4 -37 -42 -78 -25 -28 -39 -51 -35 -60 3
-8 1 -15 -4 -15 -4 0 -12 -14 -15 -32 -4 -18 -12 -40 -18 -50 -13 -21 -21 -14
86 -77 295 -172 640 -297 992 -356 358 -61 780 -53 1125 21 248 53 587 171
576 201 -3 8 -6 26 -6 39 0 15 -6 24 -16 24 -14 0 -14 -3 -4 -15 11 -13 10
-14 -4 -9 -9 3 -16 12 -16 20 0 22 -1 26 -27 84 -23 53 -24 55 -10 155 18 125
22 291 8 300 -6 3 -11 19 -11 35 0 28 -18 44 -37 32 -6 -4 -11 -60 -11 -137
-1 -142 -24 -341 -49 -420 -9 -27 -30 -66 -48 -85 -18 -19 -40 -59 -50 -88
-16 -49 -18 -52 -31 -34 -11 16 -11 28 1 73 19 68 18 72 -1 65 -12 -5 -15 -2
-10 9 3 9 2 13 -4 10 -6 -3 -10 -14 -10 -23 -1 -9 -9 -32 -19 -51 -15 -28 -20
-31 -27 -19 -10 17 -62 30 -70 16 -3 -4 -10 -5 -16 -2 -6 4 -8 2 -4 -4 3 -6 2
-13 -3 -16 -5 -3 -12 6 -16 22 -3 15 -18 42 -33 61 -16 22 -20 32 -10 29 8 -4
28 2 44 12 20 14 32 16 41 8 15 -12 43 6 43 29 0 7 6 24 14 36 8 12 16 34 18
49 2 15 7 30 11 34 4 4 7 26 7 49 0 36 -3 41 -20 40 -27 -2 -39 -15 -55 -61
-7 -21 -19 -40 -26 -43 -8 -2 -10 2 -5 15 14 35 11 39 -26 42 -30 3 -38 7 -38
23 0 10 -6 19 -12 20 -7 0 1 5 17 11 17 6 39 17 50 26 18 13 12 13 -60 7 -44
-3 -91 -8 -105 -9 -14 -2 -46 -4 -72 -4 -41 -2 -48 -5 -48 -22 0 -11 -5 -20
-11 -20 -5 0 -7 5 -3 12 5 8 2 9 -10 5 -10 -4 -22 -7 -27 -7 -6 0 -8 -4 -4 -9
3 -5 1 -12 -5 -16 -5 -3 -10 -1 -10 5 0 6 -10 8 -26 4 -21 -5 -25 -4 -19 6 5
9 4 11 -4 6 -6 -4 -9 -11 -7 -15 3 -4 -29 -6 -70 -6 -107 2 -94 -20 15 -24 24
-1 50 -8 58 -16 8 -8 21 -15 28 -15 8 0 16 -4 19 -9 4 -5 -3 -7 -14 -4 -15 4
-20 0 -20 -15 0 -11 7 -22 16 -24 9 -2 -11 -16 -45 -33 -35 -18 -60 -36 -60
-45 3 -42 -1 -48 -40 -52 -21 -2 -52 2 -67 8 -18 7 -37 9 -51 3 -13 -5 -23 -5
-23 0 0 4 -6 8 -14 8 -8 0 -12 -7 -9 -16 3 -9 -9 0 -26 19 -20 22 -29 28 -24
15 5 -16 4 -18 -8 -9 -14 11 -51 5 -50 -9 1 -4 1 -24 0 -44 0 -31 -2 -34 -9
-18 -5 12 -7 -13 -3 -64 5 -70 4 -83 -8 -76 -11 6 -12 5 -1 -6 6 -7 12 -23 12
-35 0 -12 7 -27 15 -34 16 -13 21 -50 7 -50 -10 0 -94 128 -146 223 -30 55
-42 67 -62 67 -20 0 -23 -3 -15 -18 6 -12 5 -23 -5 -37 -14 -19 -14 -19 -29 1
-50 62 -126 338 -110 401 3 13 -1 36 -10 53 -8 16 -15 41 -15 55 0 14 -7 28
-15 31 -8 4 -15 15 -15 26 0 22 -57 79 -105 105 -35 19 -159 53 -195 53 -48 0
-149 -83 -150 -122 0 -23 -50 -21 -51 2 0 10 -3 9 -9 -5 -8 -19 -11 -17 -14
15 0 8 -15 24 -33 35 -53 33 -52 67 1 107 22 16 22 16 18 -13 -3 -22 0 -29 12
-29 9 0 16 4 16 9 0 5 19 31 43 57 24 27 46 57 50 67 3 9 11 17 17 17 5 0 9
11 8 25 -1 14 -3 25 -3 24 0 0 -30 -23 -67 -50z m87 -239 c-10 -11 -24 -20
-32 -20 -7 0 -14 -8 -14 -17 -1 -16 -2 -16 -6 0 -6 23 24 57 50 57 19 0 20 -1
2 -20z m144 4 c2 -2 -3 -4 -11 -4 -8 0 -27 -9 -42 -21 -16 -13 -33 -18 -46
-14 -18 6 -19 3 -14 -27 l6 -33 -17 23 c-15 20 -15 27 -5 48 8 15 22 24 36 24
13 0 26 5 29 10 5 9 52 4 64 -6z m195 -23 c34 -37 11 -32 -25 5 -21 23 -26 33
-14 26 11 -5 29 -20 39 -31z m-149 9 c3 -6 -1 -7 -9 -4 -18 7 -21 14 -7 14 6
0 13 -4 16 -10z m-195 -36 c0 -2 -9 -8 -20 -14 -15 -8 -18 -8 -14 3 4 11 34
21 34 11z m85 -64 c-10 -11 -22 -20 -28 -20 -5 0 1 9 14 20 31 25 37 25 14 0z
m-275 -40 c0 -5 -13 -16 -30 -25 -38 -19 -40 -6 -2 17 34 20 32 20 32 8z
m-399 -73 c-13 -13 -26 -3 -16 12 3 6 11 8 17 5 6 -4 6 -10 -1 -17z m969 3 c0
-5 -2 -10 -4 -10 -3 0 -8 5 -11 10 -3 6 -1 10 4 10 6 0 11 -4 11 -10z m36
-210 c8 -47 18 -98 21 -115 4 -22 2 -27 -6 -20 -6 6 -12 24 -13 40 -1 17 -4
34 -6 39 -3 5 -7 27 -9 50 -2 22 -7 42 -11 46 -4 3 -8 39 -9 80 l-1 75 9 -55
c5 -30 16 -93 25 -140z m1074 140 c0 -8 -37 -15 -62 -11 -5 0 -8 -8 -8 -18 0
-35 -67 -43 -106 -12 -20 16 -22 20 -9 31 8 6 18 9 23 6 4 -2 30 -1 58 3 71
12 104 12 104 1z m34 -93 c-3 -9 -16 -12 -37 -9 -27 4 -29 6 -12 13 32 12 55
10 49 -4z m-1361 -115 c9 -8 17 -12 17 -8 0 3 12 0 28 -8 15 -7 56 -21 92 -30
36 -9 69 -21 74 -26 6 -6 22 -10 37 -10 22 0 48 -25 37 -36 -2 -1 -34 10 -71
26 -59 25 -69 26 -74 13 -4 -10 3 -22 17 -33 16 -12 19 -19 10 -22 -23 -7 21
-48 51 -48 47 0 122 -45 148 -89 14 -22 30 -37 35 -34 6 4 8 3 4 -2 -4 -4 -3
-16 2 -25 9 -17 7 -17 -30 1 -57 28 -169 51 -207 44 -27 -5 -48 2 -108 35 -52
29 -75 47 -75 60 0 13 -16 26 -50 42 -27 13 -50 28 -50 34 0 15 48 36 55 24 4
-6 16 -10 28 -10 16 0 23 6 23 20 0 10 -2 17 -5 15 -2 -3 -14 10 -26 28 -17
23 -20 37 -13 50 9 18 19 16 51 -11z m1447 12 c0 -2 -7 -4 -15 -4 -8 0 -15 4
-15 10 0 5 7 7 15 4 8 -4 15 -8 15 -10z m349 -70 c1 -37 -4 -55 -16 -65 -15
-12 -16 -12 -10 4 3 9 3 17 -2 17 -9 0 -5 105 5 122 11 18 22 -19 23 -78z
m-45 61 c-4 -8 -8 -15 -10 -15 -2 0 -4 7 -4 15 0 8 4 15 10 15 5 0 7 -7 4 -15z
m-629 -37 c-4 -24 -2 -56 4 -73 10 -28 10 -29 -4 -11 -22 28 -20 126 2 126 2
0 1 -19 -2 -42z m178 30 c15 -7 27 -16 27 -21 0 -6 -56 17 -69 29 -10 9 17 3
42 -8z m-273 -42 c0 -11 -19 -15 -25 -6 -3 5 1 10 9 10 9 0 16 -2 16 -4z
m-363 -178 c-2 -13 -4 -3 -4 22 0 25 2 35 4 23 2 -13 2 -33 0 -45z"/>
<path d="M3810 1157 c0 -7 14 -18 30 -24 17 -6 30 -10 30 -9 0 1 -13 12 -30
24 -20 15 -30 18 -30 9z"/>
<path d="M1817 1109 c-18 -32 -24 -71 -8 -53 9 10 33 76 28 80 -1 1 -10 -11
-20 -27z"/>
<path d="M1570 1049 c0 -2 -7 -25 -15 -51 -8 -27 -11 -48 -6 -48 8 0 32 92 25
99 -2 2 -4 2 -4 0z"/>
<path d="M2747 1013 c-4 -3 -7 -13 -7 -21 0 -18 13 -7 16 13 2 17 1 18 -9 8z"/>
<path d="M4421 984 c0 -11 3 -14 6 -6 3 7 2 16 -1 19 -3 4 -6 -2 -5 -13z"/>
<path d="M1855 910 c-3 -5 -2 -10 4 -10 5 0 13 5 16 10 3 6 2 10 -4 10 -5 0
-13 -4 -16 -10z"/>
<path d="M4298 895 c-24 -102 -36 -148 -37 -136 -1 8 -4 11 -7 8 -4 -4 -2 -13
5 -21 15 -18 8 -111 -13 -161 -9 -22 -14 -45 -11 -52 3 -9 0 -11 -7 -7 -8 5
-9 2 -3 -12 4 -10 10 -32 14 -49 6 -26 10 -19 34 60 19 66 28 121 32 205 3 73
1 106 -4 90 l-9 -25 -1 27 c-1 14 4 28 10 30 6 2 9 19 7 38 l-3 35 -7 -30z"/>
<path d="M1557 838 c-5 -27 -12 -48 -18 -48 -5 0 -9 -12 -8 -27 0 -25 1 -26 9
-8 5 11 9 16 9 11 1 -5 10 3 21 17 12 15 20 39 19 59 -1 30 -2 31 -9 8 -7 -25
-7 -25 -11 5 -4 26 -5 24 -12 -17z"/>
<path d="M4424 527 c3 -10 6 -30 6 -43 0 -14 4 -22 10 -19 15 9 12 39 -6 61
-14 17 -15 17 -10 1z"/>
<path d="M4426 424 c3 -35 14 -43 14 -11 0 14 -4 28 -9 31 -4 3 -7 -6 -5 -20z"/>
</g>
</svg>
